<mxfile host="Electron" agent="Mozilla/5.0 (Windows NT 10.0; Win64; x64) AppleWebKit/537.36 (KHTML, like Gecko) draw.io/25.0.2 Chrome/128.0.6613.186 Electron/32.2.5 Safari/537.36" version="25.0.2">
  <diagram name="Page-1" id="7e0a89b8-554c-2b80-1dc8-d5c74ca68de4">
    <mxGraphModel dx="1078" dy="758" grid="1" gridSize="10" guides="1" tooltips="1" connect="1" arrows="1" fold="1" page="1" pageScale="1" pageWidth="4681" pageHeight="3300" background="none" math="0" shadow="0">
      <root>
        <mxCell id="0" />
        <mxCell id="1" parent="0" />
        <mxCell id="1QElP343LdV9KrDLTXMQ-137" value="avl_user_interface" style="rounded=0;whiteSpace=wrap;html=1;verticalAlign=top;points=[];" parent="1" vertex="1">
          <mxGeometry x="180" y="90" width="970" height="990" as="geometry" />
        </mxCell>
        <mxCell id="1QElP343LdV9KrDLTXMQ-309" style="edgeStyle=orthogonalEdgeStyle;rounded=0;orthogonalLoop=1;jettySize=auto;html=1;exitX=1;exitY=0.5;exitDx=0;exitDy=0;exitPerimeter=0;endArrow=none;endFill=0;" parent="1" source="1QElP343LdV9KrDLTXMQ-138" edge="1">
          <mxGeometry relative="1" as="geometry">
            <mxPoint x="1200" y="226" as="targetPoint" />
            <Array as="points">
              <mxPoint x="1000" y="226" />
              <mxPoint x="1260" y="226" />
            </Array>
          </mxGeometry>
        </mxCell>
        <mxCell id="1QElP343LdV9KrDLTXMQ-310" value="auto_o" style="edgeLabel;html=1;align=center;verticalAlign=middle;resizable=0;points=[];" parent="1QElP343LdV9KrDLTXMQ-309" vertex="1" connectable="0">
          <mxGeometry x="0.9335" y="2" relative="1" as="geometry">
            <mxPoint x="45" y="1" as="offset" />
          </mxGeometry>
        </mxCell>
        <mxCell id="1QElP343LdV9KrDLTXMQ-311" style="edgeStyle=orthogonalEdgeStyle;rounded=0;orthogonalLoop=1;jettySize=auto;html=1;exitX=1;exitY=0.63;exitDx=0;exitDy=0;exitPerimeter=0;strokeWidth=2;endArrow=dash;endFill=0;" parent="1" source="1QElP343LdV9KrDLTXMQ-138" edge="1">
          <mxGeometry relative="1" as="geometry">
            <mxPoint x="1200" y="242" as="targetPoint" />
            <Array as="points">
              <mxPoint x="970" y="242" />
              <mxPoint x="1260" y="242" />
            </Array>
          </mxGeometry>
        </mxCell>
        <mxCell id="1QElP343LdV9KrDLTXMQ-312" value="led_o" style="edgeLabel;html=1;align=center;verticalAlign=middle;resizable=0;points=[];" parent="1QElP343LdV9KrDLTXMQ-311" vertex="1" connectable="0">
          <mxGeometry x="0.8616" y="-1" relative="1" as="geometry">
            <mxPoint x="67" y="-1" as="offset" />
          </mxGeometry>
        </mxCell>
        <mxCell id="1QElP343LdV9KrDLTXMQ-322" value="10" style="edgeLabel;html=1;align=center;verticalAlign=middle;resizable=0;points=[];fontSize=8;" parent="1QElP343LdV9KrDLTXMQ-311" vertex="1" connectable="0">
          <mxGeometry x="0.9783" y="1" relative="1" as="geometry">
            <mxPoint x="3" y="-6" as="offset" />
          </mxGeometry>
        </mxCell>
        <mxCell id="1QElP343LdV9KrDLTXMQ-313" style="edgeStyle=orthogonalEdgeStyle;rounded=0;orthogonalLoop=1;jettySize=auto;html=1;exitX=1;exitY=0.75;exitDx=0;exitDy=0;exitPerimeter=0;strokeWidth=2;endArrow=dash;endFill=0;" parent="1" source="1QElP343LdV9KrDLTXMQ-138" edge="1">
          <mxGeometry relative="1" as="geometry">
            <mxPoint x="1200" y="256" as="targetPoint" />
            <Array as="points" />
          </mxGeometry>
        </mxCell>
        <mxCell id="1QElP343LdV9KrDLTXMQ-314" value="delay_o" style="edgeLabel;html=1;align=center;verticalAlign=middle;resizable=0;points=[];" parent="1QElP343LdV9KrDLTXMQ-313" vertex="1" connectable="0">
          <mxGeometry x="0.8185" y="-3" relative="1" as="geometry">
            <mxPoint x="88" y="-4" as="offset" />
          </mxGeometry>
        </mxCell>
        <mxCell id="1QElP343LdV9KrDLTXMQ-321" value="2" style="edgeLabel;html=1;align=center;verticalAlign=middle;resizable=0;points=[];fontSize=8;labelBackgroundColor=none;" parent="1QElP343LdV9KrDLTXMQ-313" vertex="1" connectable="0">
          <mxGeometry x="0.9642" relative="1" as="geometry">
            <mxPoint x="5" y="-5" as="offset" />
          </mxGeometry>
        </mxCell>
        <mxCell id="1QElP343LdV9KrDLTXMQ-138" value="Gestion d&#39;Ã©criture" style="rounded=0;whiteSpace=wrap;html=1;points=[[0,0,0,0,0],[0,0.12,0,0,0],[0,0.25,0,0,0],[0,0.38,0,0,0],[0,0.5,0,0,0],[0,0.63,0,0,0],[0,1,0,0,0],[0.25,0,0,0,0],[0.25,1,0,0,0],[0.5,0,0,0,0],[0.5,1,0,0,0],[0.75,0,0,0,0],[0.75,1,0,0,0],[1,0,0,0,0],[1,0.13,0,0,0],[1,0.25,0,0,0],[1,0.38,0,0,0],[1,0.5,0,0,0],[1,0.63,0,0,0],[1,0.75,0,0,0],[1,0.88,0,0,0],[1,1,0,0,0]];fillColor=#fff2cc;strokeColor=#d6b656;fontStyle=1" parent="1" vertex="1">
          <mxGeometry x="366" y="164" width="120" height="123" as="geometry" />
        </mxCell>
        <mxCell id="1QElP343LdV9KrDLTXMQ-9" value="" style="endArrow=none;html=1;rounded=0;edgeStyle=orthogonalEdgeStyle;jumpStyle=arc;entryX=0;entryY=0.6;entryDx=0;entryDy=0;entryPerimeter=0;" parent="1" target="1QElP343LdV9KrDLTXMQ-23" edge="1">
          <mxGeometry width="50" height="50" relative="1" as="geometry">
            <mxPoint x="35" y="590.22" as="sourcePoint" />
            <mxPoint x="510" y="660" as="targetPoint" />
            <Array as="points">
              <mxPoint x="520" y="590" />
              <mxPoint x="520" y="830" />
            </Array>
          </mxGeometry>
        </mxCell>
        <mxCell id="1QElP343LdV9KrDLTXMQ-10" value="avl_read_i&amp;nbsp;" style="edgeLabel;html=1;align=center;verticalAlign=middle;resizable=0;points=[];" parent="1QElP343LdV9KrDLTXMQ-9" vertex="1" connectable="0">
          <mxGeometry x="0.2447" y="-1" relative="1" as="geometry">
            <mxPoint x="-449" y="-94" as="offset" />
          </mxGeometry>
        </mxCell>
        <mxCell id="1QElP343LdV9KrDLTXMQ-19" value="" style="endArrow=none;html=1;rounded=0;strokeWidth=2;entryX=0;entryY=0.5;entryDx=0;entryDy=0;entryPerimeter=0;edgeStyle=orthogonalEdgeStyle;" parent="1" target="1QElP343LdV9KrDLTXMQ-138" edge="1">
          <mxGeometry width="50" height="50" relative="1" as="geometry">
            <mxPoint x="36" y="360" as="sourcePoint" />
            <mxPoint x="190.72000000000003" y="361.56000000000006" as="targetPoint" />
            <Array as="points">
              <mxPoint x="36" y="360" />
              <mxPoint x="260" y="360" />
              <mxPoint x="260" y="225" />
            </Array>
          </mxGeometry>
        </mxCell>
        <mxCell id="1QElP343LdV9KrDLTXMQ-20" value="avl_writedata_i" style="edgeLabel;html=1;align=center;verticalAlign=middle;resizable=0;points=[];" parent="1QElP343LdV9KrDLTXMQ-19" vertex="1" connectable="0">
          <mxGeometry x="0.2447" y="-1" relative="1" as="geometry">
            <mxPoint x="-188" y="55" as="offset" />
          </mxGeometry>
        </mxCell>
        <mxCell id="1QElP343LdV9KrDLTXMQ-262" style="edgeStyle=orthogonalEdgeStyle;rounded=0;orthogonalLoop=1;jettySize=auto;html=1;exitX=1;exitY=0.93;exitDx=0;exitDy=0;exitPerimeter=0;endArrow=none;endFill=0;strokeWidth=2;entryX=0;entryY=0.5;entryDx=0;entryDy=0;entryPerimeter=0;" parent="1" source="1QElP343LdV9KrDLTXMQ-23" target="1QElP343LdV9KrDLTXMQ-267" edge="1">
          <mxGeometry relative="1" as="geometry">
            <mxPoint x="1040" y="923" as="targetPoint" />
          </mxGeometry>
        </mxCell>
        <mxCell id="1QElP343LdV9KrDLTXMQ-264" value="readdata_next_s" style="edgeLabel;html=1;align=center;verticalAlign=middle;resizable=0;points=[];" parent="1QElP343LdV9KrDLTXMQ-262" vertex="1" connectable="0">
          <mxGeometry x="-0.7039" y="2" relative="1" as="geometry">
            <mxPoint x="24" y="-7" as="offset" />
          </mxGeometry>
        </mxCell>
        <mxCell id="1QElP343LdV9KrDLTXMQ-263" style="edgeStyle=orthogonalEdgeStyle;rounded=0;orthogonalLoop=1;jettySize=auto;html=1;exitX=1;exitY=0.69;exitDx=0;exitDy=0;exitPerimeter=0;endArrow=none;endFill=0;entryX=0;entryY=0.5;entryDx=0;entryDy=0;entryPerimeter=0;" parent="1" source="1QElP343LdV9KrDLTXMQ-23" target="1QElP343LdV9KrDLTXMQ-271" edge="1">
          <mxGeometry relative="1" as="geometry">
            <mxPoint x="1040" y="855" as="targetPoint" />
            <Array as="points">
              <mxPoint x="935" y="855" />
              <mxPoint x="1067" y="855" />
            </Array>
          </mxGeometry>
        </mxCell>
        <mxCell id="1QElP343LdV9KrDLTXMQ-265" value="readdatavalid_next_s" style="edgeLabel;html=1;align=center;verticalAlign=middle;resizable=0;points=[];" parent="1QElP343LdV9KrDLTXMQ-263" vertex="1" connectable="0">
          <mxGeometry x="-0.466" y="-1" relative="1" as="geometry">
            <mxPoint x="16" y="-10" as="offset" />
          </mxGeometry>
        </mxCell>
        <mxCell id="1QElP343LdV9KrDLTXMQ-23" value="Gestion de lecture" style="rounded=0;whiteSpace=wrap;html=1;points=[[0,0,0,0,0],[0,0.07,0,0,0],[0,0.13,0,0,0],[0,0.2,0,0,0],[0,0.27,0,0,0],[0,0.33,0,0,0],[0,0.4,0,0,0],[0,0.47,0,0,0],[0,0.53,0,0,0],[0,0.6,0,0,0],[0,0.67,0,0,0],[0,0.73,0,0,0],[0,0.8,0,0,0],[0,0.87,0,0,0],[0,0.93,0,0,0],[0,1,0,0,0],[0.25,0,0,0,0],[0.25,1,0,0,0],[0.5,0,0,0,0],[0.5,1,0,0,0],[0.75,0,0,0,0],[0.75,1,0,0,0],[1,0,0,0,0],[1,0.69,0,0,0],[1,0.93,0,0,0],[1,1,0,0,0]];fontStyle=1;fillColor=#fff2cc;strokeColor=#d6b656;" parent="1" vertex="1">
          <mxGeometry x="710" y="660" width="120" height="283" as="geometry" />
        </mxCell>
        <mxCell id="1QElP343LdV9KrDLTXMQ-26" value="" style="endArrow=none;html=1;rounded=0;align=center;startArrow=cross;startFill=0;" parent="1" edge="1">
          <mxGeometry width="50" height="50" relative="1" as="geometry">
            <mxPoint x="1110" y="161" as="sourcePoint" />
            <mxPoint x="1200" y="161" as="targetPoint" />
          </mxGeometry>
        </mxCell>
        <mxCell id="1QElP343LdV9KrDLTXMQ-27" value="avl_waitrequest_o&amp;nbsp;" style="edgeLabel;html=1;align=center;verticalAlign=middle;resizable=0;points=[];" parent="1QElP343LdV9KrDLTXMQ-26" vertex="1" connectable="0">
          <mxGeometry x="0.2447" y="-1" relative="1" as="geometry">
            <mxPoint x="84" y="-2" as="offset" />
          </mxGeometry>
        </mxCell>
        <mxCell id="1QElP343LdV9KrDLTXMQ-28" value="" style="endArrow=none;html=1;rounded=0;strokeWidth=2;entryX=0;entryY=0.61;entryDx=0;entryDy=0;entryPerimeter=0;jumpStyle=arc;" parent="1" target="1QElP343LdV9KrDLTXMQ-114" edge="1">
          <mxGeometry width="50" height="50" relative="1" as="geometry">
            <mxPoint x="36" y="380" as="sourcePoint" />
            <mxPoint x="180" y="380" as="targetPoint" />
            <Array as="points">
              <mxPoint x="260" y="380" />
              <mxPoint x="260" y="401" />
              <mxPoint x="260" y="540" />
            </Array>
          </mxGeometry>
        </mxCell>
        <mxCell id="1QElP343LdV9KrDLTXMQ-29" value="button_i" style="edgeLabel;html=1;align=center;verticalAlign=middle;resizable=0;points=[];" parent="1QElP343LdV9KrDLTXMQ-28" vertex="1" connectable="0">
          <mxGeometry x="0.2447" y="-1" relative="1" as="geometry">
            <mxPoint x="-203" y="-90" as="offset" />
          </mxGeometry>
        </mxCell>
        <mxCell id="1QElP343LdV9KrDLTXMQ-30" value="" style="endArrow=none;html=1;rounded=0;strokeWidth=2;entryX=0;entryY=0.83;entryDx=0;entryDy=0;entryPerimeter=0;jumpStyle=arc;" parent="1" target="1QElP343LdV9KrDLTXMQ-114" edge="1">
          <mxGeometry width="50" height="50" relative="1" as="geometry">
            <mxPoint x="36" y="400" as="sourcePoint" />
            <mxPoint x="160" y="400" as="targetPoint" />
            <Array as="points">
              <mxPoint x="240" y="400" />
              <mxPoint x="240" y="423" />
              <mxPoint x="240" y="563" />
            </Array>
          </mxGeometry>
        </mxCell>
        <mxCell id="1QElP343LdV9KrDLTXMQ-31" value="switch_i" style="edgeLabel;html=1;align=center;verticalAlign=middle;resizable=0;points=[];" parent="1QElP343LdV9KrDLTXMQ-30" vertex="1" connectable="0">
          <mxGeometry x="0.2447" y="-1" relative="1" as="geometry">
            <mxPoint x="-184" y="-112" as="offset" />
          </mxGeometry>
        </mxCell>
        <mxCell id="1QElP343LdV9KrDLTXMQ-66" value="" style="endArrow=none;html=1;rounded=0;entryX=0;entryY=0.121;entryDx=0;entryDy=0;entryPerimeter=0;strokeColor=#026309;" parent="1" edge="1">
          <mxGeometry width="50" height="50" relative="1" as="geometry">
            <mxPoint x="39" y="200.14" as="sourcePoint" />
            <mxPoint x="190" y="199.99999999999994" as="targetPoint" />
          </mxGeometry>
        </mxCell>
        <mxCell id="1QElP343LdV9KrDLTXMQ-67" value="avl_reset_i&amp;nbsp;" style="edgeLabel;html=1;align=center;verticalAlign=middle;resizable=0;points=[];fontColor=#026309;" parent="1QElP343LdV9KrDLTXMQ-66" vertex="1" connectable="0">
          <mxGeometry x="0.2447" y="-1" relative="1" as="geometry">
            <mxPoint x="-63" y="-10" as="offset" />
          </mxGeometry>
        </mxCell>
        <mxCell id="1QElP343LdV9KrDLTXMQ-70" value="" style="endArrow=none;html=1;rounded=0;entryX=0;entryY=0.38;entryDx=0;entryDy=0;entryPerimeter=0;edgeStyle=orthogonalEdgeStyle;" parent="1" target="1QElP343LdV9KrDLTXMQ-138" edge="1">
          <mxGeometry width="50" height="50" relative="1" as="geometry">
            <mxPoint x="38" y="220.34" as="sourcePoint" />
            <mxPoint x="190" y="219.99999999999997" as="targetPoint" />
            <Array as="points">
              <mxPoint x="220" y="220" />
              <mxPoint x="220" y="211" />
            </Array>
          </mxGeometry>
        </mxCell>
        <mxCell id="1QElP343LdV9KrDLTXMQ-71" value="avl_write_i&amp;nbsp;" style="edgeLabel;html=1;align=center;verticalAlign=middle;resizable=0;points=[];" parent="1QElP343LdV9KrDLTXMQ-70" vertex="1" connectable="0">
          <mxGeometry x="0.2447" y="-1" relative="1" as="geometry">
            <mxPoint x="-172" as="offset" />
          </mxGeometry>
        </mxCell>
        <mxCell id="1QElP343LdV9KrDLTXMQ-76" value="" style="endArrow=none;html=1;rounded=0;" parent="1" edge="1">
          <mxGeometry width="50" height="50" relative="1" as="geometry">
            <mxPoint x="149" y="365" as="sourcePoint" />
            <mxPoint x="159" y="355" as="targetPoint" />
          </mxGeometry>
        </mxCell>
        <mxCell id="1QElP343LdV9KrDLTXMQ-77" value="32" style="edgeLabel;html=1;align=center;verticalAlign=middle;resizable=0;points=[];labelBackgroundColor=none;" parent="1QElP343LdV9KrDLTXMQ-76" vertex="1" connectable="0">
          <mxGeometry x="0.5707" y="1" relative="1" as="geometry">
            <mxPoint x="-8" y="-3" as="offset" />
          </mxGeometry>
        </mxCell>
        <mxCell id="1QElP343LdV9KrDLTXMQ-78" value="" style="endArrow=none;html=1;rounded=0;" parent="1" edge="1">
          <mxGeometry width="50" height="50" relative="1" as="geometry">
            <mxPoint x="150" y="385" as="sourcePoint" />
            <mxPoint x="160" y="375" as="targetPoint" />
          </mxGeometry>
        </mxCell>
        <mxCell id="1QElP343LdV9KrDLTXMQ-79" value="4" style="edgeLabel;html=1;align=center;verticalAlign=middle;resizable=0;points=[];labelBackgroundColor=none;" parent="1QElP343LdV9KrDLTXMQ-78" vertex="1" connectable="0">
          <mxGeometry x="0.5707" y="1" relative="1" as="geometry">
            <mxPoint x="-8" y="-3" as="offset" />
          </mxGeometry>
        </mxCell>
        <mxCell id="1QElP343LdV9KrDLTXMQ-80" value="" style="endArrow=none;html=1;rounded=0;" parent="1" edge="1">
          <mxGeometry width="50" height="50" relative="1" as="geometry">
            <mxPoint x="150" y="405" as="sourcePoint" />
            <mxPoint x="160" y="395" as="targetPoint" />
          </mxGeometry>
        </mxCell>
        <mxCell id="1QElP343LdV9KrDLTXMQ-81" value="10" style="edgeLabel;html=1;align=center;verticalAlign=middle;resizable=0;points=[];labelBackgroundColor=none;" parent="1QElP343LdV9KrDLTXMQ-80" vertex="1" connectable="0">
          <mxGeometry x="0.5707" y="1" relative="1" as="geometry">
            <mxPoint x="-8" y="-3" as="offset" />
          </mxGeometry>
        </mxCell>
        <mxCell id="1QElP343LdV9KrDLTXMQ-114" value="Synch I/O" style="rounded=0;whiteSpace=wrap;html=1;points=[[0,0,0,0,0],[0,0.19,0,0,0],[0,0.41,0,0,0],[0,0.61,0,0,0],[0,0.83,0,0,0],[0,1,0,0,0],[0.25,0,0,0,0],[0.25,1,0,0,0],[0.5,0,0,0,0],[0.5,1,0,0,0],[0.75,0,0,0,0],[0.75,1,0,0,0],[1,0,0,0,0],[1,0.5,0,0,0],[1,0.75,0,0,0],[1,1,0,0,0]];fillColor=#fff2cc;strokeColor=#d6b656;fontStyle=1" parent="1" vertex="1">
          <mxGeometry x="366" y="480" width="120" height="100" as="geometry" />
        </mxCell>
        <mxCell id="1QElP343LdV9KrDLTXMQ-120" value="" style="group" parent="1" vertex="1" connectable="0">
          <mxGeometry x="36" y="334" width="124" height="10" as="geometry" />
        </mxCell>
        <mxCell id="1QElP343LdV9KrDLTXMQ-17" value="" style="endArrow=cross;html=1;rounded=0;strokeWidth=2;endFill=0;" parent="1QElP343LdV9KrDLTXMQ-120" edge="1">
          <mxGeometry width="50" height="50" relative="1" as="geometry">
            <mxPoint y="4.660000000000025" as="sourcePoint" />
            <mxPoint x="184" y="5" as="targetPoint" />
          </mxGeometry>
        </mxCell>
        <mxCell id="1QElP343LdV9KrDLTXMQ-18" value="avl_byteenable_i" style="edgeLabel;html=1;align=center;verticalAlign=middle;resizable=0;points=[];" parent="1QElP343LdV9KrDLTXMQ-17" vertex="1" connectable="0">
          <mxGeometry x="0.2447" y="-1" relative="1" as="geometry">
            <mxPoint x="-73" y="-11" as="offset" />
          </mxGeometry>
        </mxCell>
        <mxCell id="1QElP343LdV9KrDLTXMQ-74" value="" style="endArrow=none;html=1;rounded=0;" parent="1QElP343LdV9KrDLTXMQ-120" edge="1">
          <mxGeometry width="50" height="50" relative="1" as="geometry">
            <mxPoint x="114" y="10" as="sourcePoint" />
            <mxPoint x="124" as="targetPoint" />
          </mxGeometry>
        </mxCell>
        <mxCell id="1QElP343LdV9KrDLTXMQ-75" value="4" style="edgeLabel;html=1;align=center;verticalAlign=middle;resizable=0;points=[];labelBackgroundColor=none;" parent="1QElP343LdV9KrDLTXMQ-74" vertex="1" connectable="0">
          <mxGeometry x="0.5707" y="1" relative="1" as="geometry">
            <mxPoint x="-8" y="-3" as="offset" />
          </mxGeometry>
        </mxCell>
        <mxCell id="1QElP343LdV9KrDLTXMQ-121" value="" style="group" parent="1" vertex="1" connectable="0">
          <mxGeometry x="40" y="150" width="124" height="10" as="geometry" />
        </mxCell>
        <mxCell id="1QElP343LdV9KrDLTXMQ-15" value="" style="endArrow=none;html=1;rounded=0;strokeWidth=2;entryX=0;entryY=0.63;entryDx=0;entryDy=0;entryPerimeter=0;edgeStyle=orthogonalEdgeStyle;" parent="1QElP343LdV9KrDLTXMQ-121" target="1QElP343LdV9KrDLTXMQ-138" edge="1">
          <mxGeometry width="50" height="50" relative="1" as="geometry">
            <mxPoint y="4.660000000000025" as="sourcePoint" />
            <mxPoint x="154.72000000000003" y="4.960000000000036" as="targetPoint" />
            <Array as="points">
              <mxPoint x="280" y="5" />
              <mxPoint x="280" y="92" />
            </Array>
          </mxGeometry>
        </mxCell>
        <mxCell id="1QElP343LdV9KrDLTXMQ-16" value="avl_address_i" style="edgeLabel;html=1;align=center;verticalAlign=middle;resizable=0;points=[];" parent="1QElP343LdV9KrDLTXMQ-15" vertex="1" connectable="0">
          <mxGeometry x="0.2447" y="-1" relative="1" as="geometry">
            <mxPoint x="-223" y="-15" as="offset" />
          </mxGeometry>
        </mxCell>
        <mxCell id="1QElP343LdV9KrDLTXMQ-72" value="" style="endArrow=none;html=1;rounded=0;" parent="1QElP343LdV9KrDLTXMQ-121" edge="1">
          <mxGeometry width="50" height="50" relative="1" as="geometry">
            <mxPoint x="114" y="10" as="sourcePoint" />
            <mxPoint x="124" as="targetPoint" />
          </mxGeometry>
        </mxCell>
        <mxCell id="1QElP343LdV9KrDLTXMQ-73" value="14" style="edgeLabel;html=1;align=center;verticalAlign=middle;resizable=0;points=[];labelBackgroundColor=none;" parent="1QElP343LdV9KrDLTXMQ-72" vertex="1" connectable="0">
          <mxGeometry x="0.5707" y="1" relative="1" as="geometry">
            <mxPoint x="-8" y="-3" as="offset" />
          </mxGeometry>
        </mxCell>
        <mxCell id="1QElP343LdV9KrDLTXMQ-122" value="" style="group" parent="1" vertex="1" connectable="0">
          <mxGeometry x="35" y="610" width="155" height="310" as="geometry" />
        </mxCell>
        <mxCell id="1QElP343LdV9KrDLTXMQ-32" value="" style="endArrow=none;html=1;rounded=0;strokeWidth=2;" parent="1QElP343LdV9KrDLTXMQ-122" edge="1">
          <mxGeometry width="50" height="50" relative="1" as="geometry">
            <mxPoint y="5" as="sourcePoint" />
            <mxPoint x="165" y="5" as="targetPoint" />
          </mxGeometry>
        </mxCell>
        <mxCell id="1QElP343LdV9KrDLTXMQ-33" value="char_1_i" style="edgeLabel;html=1;align=center;verticalAlign=middle;resizable=0;points=[];" parent="1QElP343LdV9KrDLTXMQ-32" vertex="1" connectable="0">
          <mxGeometry x="0.2447" y="-1" relative="1" as="geometry">
            <mxPoint x="-72" y="-10" as="offset" />
          </mxGeometry>
        </mxCell>
        <mxCell id="1QElP343LdV9KrDLTXMQ-34" value="" style="endArrow=none;html=1;rounded=0;strokeWidth=2;" parent="1QElP343LdV9KrDLTXMQ-122" edge="1">
          <mxGeometry width="50" height="50" relative="1" as="geometry">
            <mxPoint y="25" as="sourcePoint" />
            <mxPoint x="165" y="25" as="targetPoint" />
          </mxGeometry>
        </mxCell>
        <mxCell id="1QElP343LdV9KrDLTXMQ-35" value="char_2_i" style="edgeLabel;html=1;align=center;verticalAlign=middle;resizable=0;points=[];" parent="1QElP343LdV9KrDLTXMQ-34" vertex="1" connectable="0">
          <mxGeometry x="0.2447" y="-1" relative="1" as="geometry">
            <mxPoint x="-72" y="-10" as="offset" />
          </mxGeometry>
        </mxCell>
        <mxCell id="1QElP343LdV9KrDLTXMQ-36" value="" style="endArrow=none;html=1;rounded=0;strokeWidth=2;" parent="1QElP343LdV9KrDLTXMQ-122" edge="1">
          <mxGeometry width="50" height="50" relative="1" as="geometry">
            <mxPoint y="45" as="sourcePoint" />
            <mxPoint x="165" y="45" as="targetPoint" />
          </mxGeometry>
        </mxCell>
        <mxCell id="1QElP343LdV9KrDLTXMQ-37" value="char_3_i" style="edgeLabel;html=1;align=center;verticalAlign=middle;resizable=0;points=[];" parent="1QElP343LdV9KrDLTXMQ-36" vertex="1" connectable="0">
          <mxGeometry x="0.2447" y="-1" relative="1" as="geometry">
            <mxPoint x="-72" y="-10" as="offset" />
          </mxGeometry>
        </mxCell>
        <mxCell id="1QElP343LdV9KrDLTXMQ-38" value="" style="endArrow=none;html=1;rounded=0;strokeWidth=2;" parent="1QElP343LdV9KrDLTXMQ-122" edge="1">
          <mxGeometry width="50" height="50" relative="1" as="geometry">
            <mxPoint y="65" as="sourcePoint" />
            <mxPoint x="165" y="65" as="targetPoint" />
          </mxGeometry>
        </mxCell>
        <mxCell id="1QElP343LdV9KrDLTXMQ-39" value="char_4_i" style="edgeLabel;html=1;align=center;verticalAlign=middle;resizable=0;points=[];" parent="1QElP343LdV9KrDLTXMQ-38" vertex="1" connectable="0">
          <mxGeometry x="0.2447" y="-1" relative="1" as="geometry">
            <mxPoint x="-72" y="-10" as="offset" />
          </mxGeometry>
        </mxCell>
        <mxCell id="1QElP343LdV9KrDLTXMQ-40" value="" style="endArrow=none;html=1;rounded=0;strokeWidth=2;" parent="1QElP343LdV9KrDLTXMQ-122" edge="1">
          <mxGeometry width="50" height="50" relative="1" as="geometry">
            <mxPoint y="85" as="sourcePoint" />
            <mxPoint x="165" y="85" as="targetPoint" />
          </mxGeometry>
        </mxCell>
        <mxCell id="1QElP343LdV9KrDLTXMQ-41" value="char_5_i" style="edgeLabel;html=1;align=center;verticalAlign=middle;resizable=0;points=[];" parent="1QElP343LdV9KrDLTXMQ-40" vertex="1" connectable="0">
          <mxGeometry x="0.2447" y="-1" relative="1" as="geometry">
            <mxPoint x="-72" y="-10" as="offset" />
          </mxGeometry>
        </mxCell>
        <mxCell id="1QElP343LdV9KrDLTXMQ-42" value="" style="endArrow=none;html=1;rounded=0;strokeWidth=2;" parent="1QElP343LdV9KrDLTXMQ-122" edge="1">
          <mxGeometry width="50" height="50" relative="1" as="geometry">
            <mxPoint y="105" as="sourcePoint" />
            <mxPoint x="165" y="105" as="targetPoint" />
          </mxGeometry>
        </mxCell>
        <mxCell id="1QElP343LdV9KrDLTXMQ-43" value="char_6_i" style="edgeLabel;html=1;align=center;verticalAlign=middle;resizable=0;points=[];" parent="1QElP343LdV9KrDLTXMQ-42" vertex="1" connectable="0">
          <mxGeometry x="0.2447" y="-1" relative="1" as="geometry">
            <mxPoint x="-72" y="-10" as="offset" />
          </mxGeometry>
        </mxCell>
        <mxCell id="1QElP343LdV9KrDLTXMQ-44" value="" style="endArrow=none;html=1;rounded=0;strokeWidth=2;" parent="1QElP343LdV9KrDLTXMQ-122" edge="1">
          <mxGeometry width="50" height="50" relative="1" as="geometry">
            <mxPoint y="125" as="sourcePoint" />
            <mxPoint x="165" y="125" as="targetPoint" />
          </mxGeometry>
        </mxCell>
        <mxCell id="1QElP343LdV9KrDLTXMQ-45" value="char_7_i" style="edgeLabel;html=1;align=center;verticalAlign=middle;resizable=0;points=[];" parent="1QElP343LdV9KrDLTXMQ-44" vertex="1" connectable="0">
          <mxGeometry x="0.2447" y="-1" relative="1" as="geometry">
            <mxPoint x="-72" y="-10" as="offset" />
          </mxGeometry>
        </mxCell>
        <mxCell id="1QElP343LdV9KrDLTXMQ-46" value="" style="endArrow=none;html=1;rounded=0;strokeWidth=2;" parent="1QElP343LdV9KrDLTXMQ-122" edge="1">
          <mxGeometry width="50" height="50" relative="1" as="geometry">
            <mxPoint y="145" as="sourcePoint" />
            <mxPoint x="165" y="145" as="targetPoint" />
          </mxGeometry>
        </mxCell>
        <mxCell id="1QElP343LdV9KrDLTXMQ-47" value="char_8_i" style="edgeLabel;html=1;align=center;verticalAlign=middle;resizable=0;points=[];" parent="1QElP343LdV9KrDLTXMQ-46" vertex="1" connectable="0">
          <mxGeometry x="0.2447" y="-1" relative="1" as="geometry">
            <mxPoint x="-72" y="-10" as="offset" />
          </mxGeometry>
        </mxCell>
        <mxCell id="1QElP343LdV9KrDLTXMQ-48" value="" style="endArrow=none;html=1;rounded=0;strokeWidth=2;" parent="1QElP343LdV9KrDLTXMQ-122" edge="1">
          <mxGeometry width="50" height="50" relative="1" as="geometry">
            <mxPoint y="165" as="sourcePoint" />
            <mxPoint x="165" y="165" as="targetPoint" />
          </mxGeometry>
        </mxCell>
        <mxCell id="1QElP343LdV9KrDLTXMQ-49" value="char_9_i" style="edgeLabel;html=1;align=center;verticalAlign=middle;resizable=0;points=[];" parent="1QElP343LdV9KrDLTXMQ-48" vertex="1" connectable="0">
          <mxGeometry x="0.2447" y="-1" relative="1" as="geometry">
            <mxPoint x="-72" y="-10" as="offset" />
          </mxGeometry>
        </mxCell>
        <mxCell id="1QElP343LdV9KrDLTXMQ-50" value="" style="endArrow=none;html=1;rounded=0;strokeWidth=2;" parent="1QElP343LdV9KrDLTXMQ-122" edge="1">
          <mxGeometry width="50" height="50" relative="1" as="geometry">
            <mxPoint y="185" as="sourcePoint" />
            <mxPoint x="165" y="185" as="targetPoint" />
          </mxGeometry>
        </mxCell>
        <mxCell id="1QElP343LdV9KrDLTXMQ-51" value="char_10_i" style="edgeLabel;html=1;align=center;verticalAlign=middle;resizable=0;points=[];" parent="1QElP343LdV9KrDLTXMQ-50" vertex="1" connectable="0">
          <mxGeometry x="0.2447" y="-1" relative="1" as="geometry">
            <mxPoint x="-72" y="-10" as="offset" />
          </mxGeometry>
        </mxCell>
        <mxCell id="1QElP343LdV9KrDLTXMQ-52" value="" style="endArrow=none;html=1;rounded=0;strokeWidth=2;" parent="1QElP343LdV9KrDLTXMQ-122" edge="1">
          <mxGeometry width="50" height="50" relative="1" as="geometry">
            <mxPoint y="205" as="sourcePoint" />
            <mxPoint x="165" y="205" as="targetPoint" />
          </mxGeometry>
        </mxCell>
        <mxCell id="1QElP343LdV9KrDLTXMQ-53" value="char_11_i" style="edgeLabel;html=1;align=center;verticalAlign=middle;resizable=0;points=[];" parent="1QElP343LdV9KrDLTXMQ-52" vertex="1" connectable="0">
          <mxGeometry x="0.2447" y="-1" relative="1" as="geometry">
            <mxPoint x="-72" y="-10" as="offset" />
          </mxGeometry>
        </mxCell>
        <mxCell id="1QElP343LdV9KrDLTXMQ-54" value="" style="endArrow=none;html=1;rounded=0;strokeWidth=2;" parent="1QElP343LdV9KrDLTXMQ-122" edge="1">
          <mxGeometry width="50" height="50" relative="1" as="geometry">
            <mxPoint y="225" as="sourcePoint" />
            <mxPoint x="165" y="225" as="targetPoint" />
          </mxGeometry>
        </mxCell>
        <mxCell id="1QElP343LdV9KrDLTXMQ-55" value="char_12_i" style="edgeLabel;html=1;align=center;verticalAlign=middle;resizable=0;points=[];" parent="1QElP343LdV9KrDLTXMQ-54" vertex="1" connectable="0">
          <mxGeometry x="0.2447" y="-1" relative="1" as="geometry">
            <mxPoint x="-72" y="-10" as="offset" />
          </mxGeometry>
        </mxCell>
        <mxCell id="1QElP343LdV9KrDLTXMQ-56" value="" style="endArrow=none;html=1;rounded=0;strokeWidth=2;" parent="1QElP343LdV9KrDLTXMQ-122" edge="1">
          <mxGeometry width="50" height="50" relative="1" as="geometry">
            <mxPoint y="245" as="sourcePoint" />
            <mxPoint x="165" y="245" as="targetPoint" />
          </mxGeometry>
        </mxCell>
        <mxCell id="1QElP343LdV9KrDLTXMQ-57" value="char_13_i" style="edgeLabel;html=1;align=center;verticalAlign=middle;resizable=0;points=[];" parent="1QElP343LdV9KrDLTXMQ-56" vertex="1" connectable="0">
          <mxGeometry x="0.2447" y="-1" relative="1" as="geometry">
            <mxPoint x="-72" y="-10" as="offset" />
          </mxGeometry>
        </mxCell>
        <mxCell id="1QElP343LdV9KrDLTXMQ-58" value="" style="endArrow=none;html=1;rounded=0;strokeWidth=2;" parent="1QElP343LdV9KrDLTXMQ-122" edge="1">
          <mxGeometry width="50" height="50" relative="1" as="geometry">
            <mxPoint y="265" as="sourcePoint" />
            <mxPoint x="165" y="265" as="targetPoint" />
          </mxGeometry>
        </mxCell>
        <mxCell id="1QElP343LdV9KrDLTXMQ-59" value="char_14_i" style="edgeLabel;html=1;align=center;verticalAlign=middle;resizable=0;points=[];" parent="1QElP343LdV9KrDLTXMQ-58" vertex="1" connectable="0">
          <mxGeometry x="0.2447" y="-1" relative="1" as="geometry">
            <mxPoint x="-72" y="-10" as="offset" />
          </mxGeometry>
        </mxCell>
        <mxCell id="1QElP343LdV9KrDLTXMQ-60" value="" style="endArrow=none;html=1;rounded=0;strokeWidth=2;" parent="1QElP343LdV9KrDLTXMQ-122" edge="1">
          <mxGeometry width="50" height="50" relative="1" as="geometry">
            <mxPoint y="285" as="sourcePoint" />
            <mxPoint x="165" y="285" as="targetPoint" />
          </mxGeometry>
        </mxCell>
        <mxCell id="1QElP343LdV9KrDLTXMQ-61" value="char_15_i" style="edgeLabel;html=1;align=center;verticalAlign=middle;resizable=0;points=[];" parent="1QElP343LdV9KrDLTXMQ-60" vertex="1" connectable="0">
          <mxGeometry x="0.2447" y="-1" relative="1" as="geometry">
            <mxPoint x="-72" y="-10" as="offset" />
          </mxGeometry>
        </mxCell>
        <mxCell id="1QElP343LdV9KrDLTXMQ-62" value="" style="endArrow=none;html=1;rounded=0;strokeWidth=2;" parent="1QElP343LdV9KrDLTXMQ-122" edge="1">
          <mxGeometry width="50" height="50" relative="1" as="geometry">
            <mxPoint y="305" as="sourcePoint" />
            <mxPoint x="165" y="305" as="targetPoint" />
          </mxGeometry>
        </mxCell>
        <mxCell id="1QElP343LdV9KrDLTXMQ-63" value="char_16_i" style="edgeLabel;html=1;align=center;verticalAlign=middle;resizable=0;points=[];" parent="1QElP343LdV9KrDLTXMQ-62" vertex="1" connectable="0">
          <mxGeometry x="0.2447" y="-1" relative="1" as="geometry">
            <mxPoint x="-72" y="-10" as="offset" />
          </mxGeometry>
        </mxCell>
        <mxCell id="1QElP343LdV9KrDLTXMQ-82" value="" style="endArrow=none;html=1;rounded=0;" parent="1QElP343LdV9KrDLTXMQ-122" edge="1">
          <mxGeometry width="50" height="50" relative="1" as="geometry">
            <mxPoint x="115" y="10" as="sourcePoint" />
            <mxPoint x="125" as="targetPoint" />
          </mxGeometry>
        </mxCell>
        <mxCell id="1QElP343LdV9KrDLTXMQ-83" value="8" style="edgeLabel;html=1;align=center;verticalAlign=middle;resizable=0;points=[];labelBackgroundColor=none;" parent="1QElP343LdV9KrDLTXMQ-82" vertex="1" connectable="0">
          <mxGeometry x="0.5707" y="1" relative="1" as="geometry">
            <mxPoint x="-4" y="-3" as="offset" />
          </mxGeometry>
        </mxCell>
        <mxCell id="1QElP343LdV9KrDLTXMQ-84" value="" style="endArrow=none;html=1;rounded=0;" parent="1QElP343LdV9KrDLTXMQ-122" edge="1">
          <mxGeometry width="50" height="50" relative="1" as="geometry">
            <mxPoint x="115" y="30" as="sourcePoint" />
            <mxPoint x="125" y="20" as="targetPoint" />
          </mxGeometry>
        </mxCell>
        <mxCell id="1QElP343LdV9KrDLTXMQ-85" value="8" style="edgeLabel;html=1;align=center;verticalAlign=middle;resizable=0;points=[];labelBackgroundColor=none;" parent="1QElP343LdV9KrDLTXMQ-84" vertex="1" connectable="0">
          <mxGeometry x="0.5707" y="1" relative="1" as="geometry">
            <mxPoint x="-4" y="-3" as="offset" />
          </mxGeometry>
        </mxCell>
        <mxCell id="1QElP343LdV9KrDLTXMQ-86" value="" style="endArrow=none;html=1;rounded=0;" parent="1QElP343LdV9KrDLTXMQ-122" edge="1">
          <mxGeometry width="50" height="50" relative="1" as="geometry">
            <mxPoint x="115" y="49" as="sourcePoint" />
            <mxPoint x="125" y="39" as="targetPoint" />
          </mxGeometry>
        </mxCell>
        <mxCell id="1QElP343LdV9KrDLTXMQ-87" value="8" style="edgeLabel;html=1;align=center;verticalAlign=middle;resizable=0;points=[];labelBackgroundColor=none;" parent="1QElP343LdV9KrDLTXMQ-86" vertex="1" connectable="0">
          <mxGeometry x="0.5707" y="1" relative="1" as="geometry">
            <mxPoint x="-4" y="-3" as="offset" />
          </mxGeometry>
        </mxCell>
        <mxCell id="1QElP343LdV9KrDLTXMQ-88" value="" style="endArrow=none;html=1;rounded=0;" parent="1QElP343LdV9KrDLTXMQ-122" edge="1">
          <mxGeometry width="50" height="50" relative="1" as="geometry">
            <mxPoint x="115" y="70" as="sourcePoint" />
            <mxPoint x="125" y="60" as="targetPoint" />
          </mxGeometry>
        </mxCell>
        <mxCell id="1QElP343LdV9KrDLTXMQ-89" value="8" style="edgeLabel;html=1;align=center;verticalAlign=middle;resizable=0;points=[];labelBackgroundColor=none;" parent="1QElP343LdV9KrDLTXMQ-88" vertex="1" connectable="0">
          <mxGeometry x="0.5707" y="1" relative="1" as="geometry">
            <mxPoint x="-4" y="-3" as="offset" />
          </mxGeometry>
        </mxCell>
        <mxCell id="1QElP343LdV9KrDLTXMQ-90" value="" style="endArrow=none;html=1;rounded=0;" parent="1QElP343LdV9KrDLTXMQ-122" edge="1">
          <mxGeometry width="50" height="50" relative="1" as="geometry">
            <mxPoint x="115" y="90" as="sourcePoint" />
            <mxPoint x="125" y="80" as="targetPoint" />
          </mxGeometry>
        </mxCell>
        <mxCell id="1QElP343LdV9KrDLTXMQ-91" value="8" style="edgeLabel;html=1;align=center;verticalAlign=middle;resizable=0;points=[];labelBackgroundColor=none;" parent="1QElP343LdV9KrDLTXMQ-90" vertex="1" connectable="0">
          <mxGeometry x="0.5707" y="1" relative="1" as="geometry">
            <mxPoint x="-4" y="-3" as="offset" />
          </mxGeometry>
        </mxCell>
        <mxCell id="1QElP343LdV9KrDLTXMQ-92" value="" style="endArrow=none;html=1;rounded=0;" parent="1QElP343LdV9KrDLTXMQ-122" edge="1">
          <mxGeometry width="50" height="50" relative="1" as="geometry">
            <mxPoint x="115" y="110" as="sourcePoint" />
            <mxPoint x="125" y="100" as="targetPoint" />
          </mxGeometry>
        </mxCell>
        <mxCell id="1QElP343LdV9KrDLTXMQ-93" value="8" style="edgeLabel;html=1;align=center;verticalAlign=middle;resizable=0;points=[];labelBackgroundColor=none;" parent="1QElP343LdV9KrDLTXMQ-92" vertex="1" connectable="0">
          <mxGeometry x="0.5707" y="1" relative="1" as="geometry">
            <mxPoint x="-4" y="-3" as="offset" />
          </mxGeometry>
        </mxCell>
        <mxCell id="1QElP343LdV9KrDLTXMQ-94" value="" style="endArrow=none;html=1;rounded=0;" parent="1QElP343LdV9KrDLTXMQ-122" edge="1">
          <mxGeometry width="50" height="50" relative="1" as="geometry">
            <mxPoint x="115" y="129" as="sourcePoint" />
            <mxPoint x="125" y="119" as="targetPoint" />
          </mxGeometry>
        </mxCell>
        <mxCell id="1QElP343LdV9KrDLTXMQ-95" value="8" style="edgeLabel;html=1;align=center;verticalAlign=middle;resizable=0;points=[];labelBackgroundColor=none;" parent="1QElP343LdV9KrDLTXMQ-94" vertex="1" connectable="0">
          <mxGeometry x="0.5707" y="1" relative="1" as="geometry">
            <mxPoint x="-4" y="-3" as="offset" />
          </mxGeometry>
        </mxCell>
        <mxCell id="1QElP343LdV9KrDLTXMQ-96" value="" style="endArrow=none;html=1;rounded=0;" parent="1QElP343LdV9KrDLTXMQ-122" edge="1">
          <mxGeometry width="50" height="50" relative="1" as="geometry">
            <mxPoint x="115" y="150" as="sourcePoint" />
            <mxPoint x="125" y="140" as="targetPoint" />
          </mxGeometry>
        </mxCell>
        <mxCell id="1QElP343LdV9KrDLTXMQ-97" value="8" style="edgeLabel;html=1;align=center;verticalAlign=middle;resizable=0;points=[];labelBackgroundColor=none;" parent="1QElP343LdV9KrDLTXMQ-96" vertex="1" connectable="0">
          <mxGeometry x="0.5707" y="1" relative="1" as="geometry">
            <mxPoint x="-4" y="-3" as="offset" />
          </mxGeometry>
        </mxCell>
        <mxCell id="1QElP343LdV9KrDLTXMQ-98" value="" style="endArrow=none;html=1;rounded=0;" parent="1QElP343LdV9KrDLTXMQ-122" edge="1">
          <mxGeometry width="50" height="50" relative="1" as="geometry">
            <mxPoint x="115" y="170" as="sourcePoint" />
            <mxPoint x="125" y="160" as="targetPoint" />
          </mxGeometry>
        </mxCell>
        <mxCell id="1QElP343LdV9KrDLTXMQ-99" value="8" style="edgeLabel;html=1;align=center;verticalAlign=middle;resizable=0;points=[];labelBackgroundColor=none;" parent="1QElP343LdV9KrDLTXMQ-98" vertex="1" connectable="0">
          <mxGeometry x="0.5707" y="1" relative="1" as="geometry">
            <mxPoint x="-4" y="-3" as="offset" />
          </mxGeometry>
        </mxCell>
        <mxCell id="1QElP343LdV9KrDLTXMQ-100" value="" style="endArrow=none;html=1;rounded=0;" parent="1QElP343LdV9KrDLTXMQ-122" edge="1">
          <mxGeometry width="50" height="50" relative="1" as="geometry">
            <mxPoint x="115" y="190" as="sourcePoint" />
            <mxPoint x="125" y="180" as="targetPoint" />
          </mxGeometry>
        </mxCell>
        <mxCell id="1QElP343LdV9KrDLTXMQ-101" value="8" style="edgeLabel;html=1;align=center;verticalAlign=middle;resizable=0;points=[];labelBackgroundColor=none;" parent="1QElP343LdV9KrDLTXMQ-100" vertex="1" connectable="0">
          <mxGeometry x="0.5707" y="1" relative="1" as="geometry">
            <mxPoint x="-4" y="-3" as="offset" />
          </mxGeometry>
        </mxCell>
        <mxCell id="1QElP343LdV9KrDLTXMQ-102" value="" style="endArrow=none;html=1;rounded=0;" parent="1QElP343LdV9KrDLTXMQ-122" edge="1">
          <mxGeometry width="50" height="50" relative="1" as="geometry">
            <mxPoint x="115" y="209" as="sourcePoint" />
            <mxPoint x="125" y="199" as="targetPoint" />
          </mxGeometry>
        </mxCell>
        <mxCell id="1QElP343LdV9KrDLTXMQ-103" value="8" style="edgeLabel;html=1;align=center;verticalAlign=middle;resizable=0;points=[];labelBackgroundColor=none;" parent="1QElP343LdV9KrDLTXMQ-102" vertex="1" connectable="0">
          <mxGeometry x="0.5707" y="1" relative="1" as="geometry">
            <mxPoint x="-4" y="-3" as="offset" />
          </mxGeometry>
        </mxCell>
        <mxCell id="1QElP343LdV9KrDLTXMQ-104" value="" style="endArrow=none;html=1;rounded=0;" parent="1QElP343LdV9KrDLTXMQ-122" edge="1">
          <mxGeometry width="50" height="50" relative="1" as="geometry">
            <mxPoint x="115" y="230" as="sourcePoint" />
            <mxPoint x="125" y="220" as="targetPoint" />
          </mxGeometry>
        </mxCell>
        <mxCell id="1QElP343LdV9KrDLTXMQ-105" value="8" style="edgeLabel;html=1;align=center;verticalAlign=middle;resizable=0;points=[];labelBackgroundColor=none;" parent="1QElP343LdV9KrDLTXMQ-104" vertex="1" connectable="0">
          <mxGeometry x="0.5707" y="1" relative="1" as="geometry">
            <mxPoint x="-4" y="-3" as="offset" />
          </mxGeometry>
        </mxCell>
        <mxCell id="1QElP343LdV9KrDLTXMQ-106" value="" style="endArrow=none;html=1;rounded=0;" parent="1QElP343LdV9KrDLTXMQ-122" edge="1">
          <mxGeometry width="50" height="50" relative="1" as="geometry">
            <mxPoint x="115" y="250" as="sourcePoint" />
            <mxPoint x="125" y="240" as="targetPoint" />
          </mxGeometry>
        </mxCell>
        <mxCell id="1QElP343LdV9KrDLTXMQ-107" value="8" style="edgeLabel;html=1;align=center;verticalAlign=middle;resizable=0;points=[];labelBackgroundColor=none;" parent="1QElP343LdV9KrDLTXMQ-106" vertex="1" connectable="0">
          <mxGeometry x="0.5707" y="1" relative="1" as="geometry">
            <mxPoint x="-4" y="-3" as="offset" />
          </mxGeometry>
        </mxCell>
        <mxCell id="1QElP343LdV9KrDLTXMQ-108" value="" style="endArrow=none;html=1;rounded=0;" parent="1QElP343LdV9KrDLTXMQ-122" edge="1">
          <mxGeometry width="50" height="50" relative="1" as="geometry">
            <mxPoint x="115" y="270" as="sourcePoint" />
            <mxPoint x="125" y="260" as="targetPoint" />
          </mxGeometry>
        </mxCell>
        <mxCell id="1QElP343LdV9KrDLTXMQ-109" value="8" style="edgeLabel;html=1;align=center;verticalAlign=middle;resizable=0;points=[];labelBackgroundColor=none;" parent="1QElP343LdV9KrDLTXMQ-108" vertex="1" connectable="0">
          <mxGeometry x="0.5707" y="1" relative="1" as="geometry">
            <mxPoint x="-4" y="-3" as="offset" />
          </mxGeometry>
        </mxCell>
        <mxCell id="1QElP343LdV9KrDLTXMQ-110" value="" style="endArrow=none;html=1;rounded=0;" parent="1QElP343LdV9KrDLTXMQ-122" edge="1">
          <mxGeometry width="50" height="50" relative="1" as="geometry">
            <mxPoint x="115" y="289" as="sourcePoint" />
            <mxPoint x="125" y="279" as="targetPoint" />
          </mxGeometry>
        </mxCell>
        <mxCell id="1QElP343LdV9KrDLTXMQ-111" value="8" style="edgeLabel;html=1;align=center;verticalAlign=middle;resizable=0;points=[];labelBackgroundColor=none;" parent="1QElP343LdV9KrDLTXMQ-110" vertex="1" connectable="0">
          <mxGeometry x="0.5707" y="1" relative="1" as="geometry">
            <mxPoint x="-4" y="-3" as="offset" />
          </mxGeometry>
        </mxCell>
        <mxCell id="1QElP343LdV9KrDLTXMQ-112" value="" style="endArrow=none;html=1;rounded=0;" parent="1QElP343LdV9KrDLTXMQ-122" edge="1">
          <mxGeometry width="50" height="50" relative="1" as="geometry">
            <mxPoint x="115" y="310" as="sourcePoint" />
            <mxPoint x="125" y="300" as="targetPoint" />
          </mxGeometry>
        </mxCell>
        <mxCell id="1QElP343LdV9KrDLTXMQ-113" value="8" style="edgeLabel;html=1;align=center;verticalAlign=middle;resizable=0;points=[];labelBackgroundColor=none;" parent="1QElP343LdV9KrDLTXMQ-112" vertex="1" connectable="0">
          <mxGeometry x="0.5707" y="1" relative="1" as="geometry">
            <mxPoint x="-4" y="-3" as="offset" />
          </mxGeometry>
        </mxCell>
        <mxCell id="1QElP343LdV9KrDLTXMQ-291" style="rounded=0;orthogonalLoop=1;jettySize=auto;html=1;endArrow=oval;endFill=1;exitX=1;exitY=0.72;exitDx=0;exitDy=0;exitPerimeter=0;" parent="1" source="1QElP343LdV9KrDLTXMQ-129" edge="1">
          <mxGeometry relative="1" as="geometry">
            <mxPoint x="920" y="466" as="targetPoint" />
            <mxPoint x="860" y="460" as="sourcePoint" />
          </mxGeometry>
        </mxCell>
        <mxCell id="1QElP343LdV9KrDLTXMQ-294" value="save_s" style="edgeLabel;html=1;align=center;verticalAlign=middle;resizable=0;points=[];" parent="1QElP343LdV9KrDLTXMQ-291" vertex="1" connectable="0">
          <mxGeometry x="-0.1271" y="-6" relative="1" as="geometry">
            <mxPoint x="-11" y="-14" as="offset" />
          </mxGeometry>
        </mxCell>
        <mxCell id="1QElP343LdV9KrDLTXMQ-292" style="edgeStyle=orthogonalEdgeStyle;rounded=0;orthogonalLoop=1;jettySize=auto;html=1;exitX=1;exitY=0.87;exitDx=0;exitDy=0;exitPerimeter=0;endArrow=none;endFill=0;entryX=0;entryY=0.25;entryDx=0;entryDy=0;entryPerimeter=0;jumpStyle=arc;" parent="1" source="1QElP343LdV9KrDLTXMQ-129" edge="1">
          <mxGeometry relative="1" as="geometry">
            <mxPoint x="711" y="559.75" as="targetPoint" />
            <Array as="points">
              <mxPoint x="880" y="484" />
              <mxPoint x="880" y="540" />
              <mxPoint x="700" y="540" />
              <mxPoint x="700" y="560" />
            </Array>
          </mxGeometry>
        </mxCell>
        <mxCell id="1QElP343LdV9KrDLTXMQ-295" value="char_rdy_s" style="edgeLabel;html=1;align=center;verticalAlign=middle;resizable=0;points=[];" parent="1QElP343LdV9KrDLTXMQ-292" vertex="1" connectable="0">
          <mxGeometry x="-0.0731" y="1" relative="1" as="geometry">
            <mxPoint x="22" y="-11" as="offset" />
          </mxGeometry>
        </mxCell>
        <mxCell id="1QElP343LdV9KrDLTXMQ-315" style="edgeStyle=orthogonalEdgeStyle;rounded=0;orthogonalLoop=1;jettySize=auto;html=1;exitX=0;exitY=0.32;exitDx=0;exitDy=0;exitPerimeter=0;endArrow=oval;endFill=1;strokeColor=#026309;" parent="1" source="1QElP343LdV9KrDLTXMQ-129" edge="1">
          <mxGeometry relative="1" as="geometry">
            <mxPoint x="790" y="340" as="targetPoint" />
            <Array as="points">
              <mxPoint x="712" y="418" />
              <mxPoint x="712" y="340" />
            </Array>
          </mxGeometry>
        </mxCell>
        <mxCell id="1QElP343LdV9KrDLTXMQ-317" value="avl_clk_i" style="edgeLabel;html=1;align=center;verticalAlign=middle;resizable=0;points=[];fontColor=#026309;" parent="1QElP343LdV9KrDLTXMQ-315" vertex="1" connectable="0">
          <mxGeometry x="0.7718" y="-2" relative="1" as="geometry">
            <mxPoint x="-9" y="-13" as="offset" />
          </mxGeometry>
        </mxCell>
        <mxCell id="1QElP343LdV9KrDLTXMQ-316" style="edgeStyle=orthogonalEdgeStyle;rounded=0;orthogonalLoop=1;jettySize=auto;html=1;exitX=0;exitY=0.15;exitDx=0;exitDy=0;exitPerimeter=0;endArrow=oval;endFill=1;strokeColor=#026309;" parent="1" source="1QElP343LdV9KrDLTXMQ-129" edge="1">
          <mxGeometry relative="1" as="geometry">
            <mxPoint x="790" y="360" as="targetPoint" />
            <Array as="points">
              <mxPoint x="720" y="398" />
              <mxPoint x="720" y="360" />
            </Array>
          </mxGeometry>
        </mxCell>
        <mxCell id="1QElP343LdV9KrDLTXMQ-318" value="avl_reset_i" style="edgeLabel;html=1;align=center;verticalAlign=middle;resizable=0;points=[];fontColor=#026309;" parent="1QElP343LdV9KrDLTXMQ-316" vertex="1" connectable="0">
          <mxGeometry x="0.576" y="-1" relative="1" as="geometry">
            <mxPoint x="-7" y="-11" as="offset" />
          </mxGeometry>
        </mxCell>
        <mxCell id="1QElP343LdV9KrDLTXMQ-129" value="MSS" style="rounded=0;whiteSpace=wrap;html=1;points=[[0,0,0,0,0],[0,0.15,0,0,0],[0,0.32,0,0,0],[0,0.5,0,0,0],[0,1,0,0,0],[0.25,0,0,0,0],[0.25,1,0,0,0],[0.5,0,0,0,0],[0.5,1,0,0,0],[0.75,0,0,0,0],[0.75,1,0,0,0],[1,0,0,0,0],[1,0.72,0,0,0],[1,0.87,0,0,0],[1,1,0,0,0]];fillColor=#fff2cc;strokeColor=#d6b656;fontStyle=1" parent="1" vertex="1">
          <mxGeometry x="732" y="380" width="120" height="120" as="geometry" />
        </mxCell>
        <mxCell id="1QElP343LdV9KrDLTXMQ-131" value="" style="endArrow=none;html=1;rounded=0;entryX=0;entryY=0.24;entryDx=0;entryDy=0;entryPerimeter=0;exitX=0;exitY=0.121;exitDx=0;exitDy=0;exitPerimeter=0;jumpStyle=arc;edgeStyle=orthogonalEdgeStyle;strokeColor=#026309;" parent="1" target="1QElP343LdV9KrDLTXMQ-195" edge="1">
          <mxGeometry width="50" height="50" relative="1" as="geometry">
            <mxPoint x="190" y="199.86" as="sourcePoint" />
            <mxPoint x="300" y="250" as="targetPoint" />
            <Array as="points">
              <mxPoint x="280" y="200" />
              <mxPoint x="280" y="356" />
              <mxPoint x="366" y="356" />
            </Array>
          </mxGeometry>
        </mxCell>
        <mxCell id="1QElP343LdV9KrDLTXMQ-132" style="edgeStyle=orthogonalEdgeStyle;rounded=0;orthogonalLoop=1;jettySize=auto;html=1;exitX=0;exitY=0.11;exitDx=0;exitDy=0;exitPerimeter=0;endArrow=none;endFill=0;jumpStyle=arc;strokeColor=#026309;" parent="1" source="1QElP343LdV9KrDLTXMQ-195" edge="1">
          <mxGeometry relative="1" as="geometry">
            <mxPoint x="40" y="178" as="targetPoint" />
            <Array as="points">
              <mxPoint x="300" y="340" />
              <mxPoint x="300" y="178" />
            </Array>
          </mxGeometry>
        </mxCell>
        <mxCell id="1QElP343LdV9KrDLTXMQ-266" value="avl_clk_i&amp;nbsp;" style="edgeLabel;html=1;align=center;verticalAlign=middle;resizable=0;points=[];fontColor=#026309;" parent="1QElP343LdV9KrDLTXMQ-132" vertex="1" connectable="0">
          <mxGeometry x="0.9246" relative="1" as="geometry">
            <mxPoint x="6" y="-9" as="offset" />
          </mxGeometry>
        </mxCell>
        <mxCell id="1QElP343LdV9KrDLTXMQ-133" style="edgeStyle=orthogonalEdgeStyle;rounded=0;orthogonalLoop=1;jettySize=auto;html=1;exitX=1;exitY=0.5;exitDx=0;exitDy=0;exitPerimeter=0;entryX=0;entryY=0.47;entryDx=0;entryDy=0;entryPerimeter=0;strokeWidth=2;endArrow=none;endFill=0;jumpStyle=arc;" parent="1" source="1QElP343LdV9KrDLTXMQ-114" target="1QElP343LdV9KrDLTXMQ-23" edge="1">
          <mxGeometry relative="1" as="geometry">
            <mxPoint x="623.9199999999998" y="529.9399999999999" as="targetPoint" />
            <Array as="points">
              <mxPoint x="560" y="530" />
              <mxPoint x="560" y="793" />
            </Array>
          </mxGeometry>
        </mxCell>
        <mxCell id="1QElP343LdV9KrDLTXMQ-134" value="boutons_s" style="edgeLabel;html=1;align=center;verticalAlign=middle;resizable=0;points=[];" parent="1QElP343LdV9KrDLTXMQ-133" vertex="1" connectable="0">
          <mxGeometry x="0.3017" y="1" relative="1" as="geometry">
            <mxPoint x="-45" y="-254" as="offset" />
          </mxGeometry>
        </mxCell>
        <mxCell id="1QElP343LdV9KrDLTXMQ-135" style="edgeStyle=orthogonalEdgeStyle;rounded=0;orthogonalLoop=1;jettySize=auto;html=1;exitX=1;exitY=0.75;exitDx=0;exitDy=0;exitPerimeter=0;entryX=0;entryY=0.53;entryDx=0;entryDy=0;entryPerimeter=0;endArrow=none;endFill=0;strokeWidth=2;jumpStyle=arc;" parent="1" source="1QElP343LdV9KrDLTXMQ-114" target="1QElP343LdV9KrDLTXMQ-23" edge="1">
          <mxGeometry relative="1" as="geometry">
            <mxPoint x="623.9199999999998" y="555.02" as="targetPoint" />
            <Array as="points">
              <mxPoint x="540" y="555" />
              <mxPoint x="540" y="810" />
            </Array>
          </mxGeometry>
        </mxCell>
        <mxCell id="1QElP343LdV9KrDLTXMQ-136" value="switches_s" style="edgeLabel;html=1;align=center;verticalAlign=middle;resizable=0;points=[];" parent="1QElP343LdV9KrDLTXMQ-135" vertex="1" connectable="0">
          <mxGeometry x="0.3016" y="1" relative="1" as="geometry">
            <mxPoint x="-26" y="-265" as="offset" />
          </mxGeometry>
        </mxCell>
        <mxCell id="1QElP343LdV9KrDLTXMQ-239" style="rounded=0;orthogonalLoop=1;jettySize=auto;html=1;exitX=1;exitY=0.13;exitDx=0;exitDy=0;exitPerimeter=0;endArrow=none;endFill=0;edgeStyle=orthogonalEdgeStyle;" parent="1" source="1QElP343LdV9KrDLTXMQ-138" edge="1">
          <mxGeometry relative="1" as="geometry">
            <mxPoint x="1200" y="180" as="targetPoint" />
            <mxPoint x="700" y="230.2500000000001" as="sourcePoint" />
            <Array as="points">
              <mxPoint x="1160" y="180" />
              <mxPoint x="1160" y="180" />
            </Array>
          </mxGeometry>
        </mxCell>
        <mxCell id="1QElP343LdV9KrDLTXMQ-256" value="init_char_s" style="edgeLabel;html=1;align=center;verticalAlign=middle;resizable=0;points=[];fontSize=9;" parent="1QElP343LdV9KrDLTXMQ-239" vertex="1" connectable="0">
          <mxGeometry x="-0.0178" y="-1" relative="1" as="geometry">
            <mxPoint x="-326" y="-9" as="offset" />
          </mxGeometry>
        </mxCell>
        <mxCell id="1QElP343LdV9KrDLTXMQ-307" value="cmd_init_o" style="edgeLabel;html=1;align=center;verticalAlign=middle;resizable=0;points=[];" parent="1QElP343LdV9KrDLTXMQ-239" vertex="1" connectable="0">
          <mxGeometry x="0.9386" relative="1" as="geometry">
            <mxPoint x="53" y="-2" as="offset" />
          </mxGeometry>
        </mxCell>
        <mxCell id="1QElP343LdV9KrDLTXMQ-240" style="edgeStyle=orthogonalEdgeStyle;rounded=0;orthogonalLoop=1;jettySize=auto;html=1;endArrow=none;endFill=0;strokeWidth=2;entryX=0;entryY=0.27;entryDx=0;entryDy=0;entryPerimeter=0;jumpStyle=arc;" parent="1" target="1QElP343LdV9KrDLTXMQ-23" edge="1">
          <mxGeometry relative="1" as="geometry">
            <mxPoint x="600" y="241.71428571428578" as="targetPoint" />
            <mxPoint x="640" y="242" as="sourcePoint" />
            <Array as="points">
              <mxPoint x="640" y="241" />
              <mxPoint x="640" y="736" />
            </Array>
          </mxGeometry>
        </mxCell>
        <mxCell id="1QElP343LdV9KrDLTXMQ-255" value="delay_gen_s" style="edgeLabel;html=1;align=center;verticalAlign=middle;resizable=0;points=[];fontSize=9;" parent="1QElP343LdV9KrDLTXMQ-240" vertex="1" connectable="0">
          <mxGeometry x="-0.4942" relative="1" as="geometry">
            <mxPoint x="-128" y="-137" as="offset" />
          </mxGeometry>
        </mxCell>
        <mxCell id="1QElP343LdV9KrDLTXMQ-242" style="edgeStyle=orthogonalEdgeStyle;rounded=0;orthogonalLoop=1;jettySize=auto;html=1;exitX=1;exitY=0.38;exitDx=0;exitDy=0;exitPerimeter=0;endArrow=none;endFill=0;jumpStyle=arc;entryX=0;entryY=0.5;entryDx=0;entryDy=0;entryPerimeter=0;" parent="1" source="1QElP343LdV9KrDLTXMQ-138" target="1QElP343LdV9KrDLTXMQ-129" edge="1">
          <mxGeometry relative="1" as="geometry">
            <mxPoint x="730" y="470" as="targetPoint" />
            <Array as="points">
              <mxPoint x="700" y="211" />
              <mxPoint x="700" y="440" />
            </Array>
          </mxGeometry>
        </mxCell>
        <mxCell id="1QElP343LdV9KrDLTXMQ-253" value="save_char_s" style="edgeLabel;html=1;align=center;verticalAlign=middle;resizable=0;points=[];fontSize=9;" parent="1QElP343LdV9KrDLTXMQ-242" vertex="1" connectable="0">
          <mxGeometry x="-0.2532" relative="1" as="geometry">
            <mxPoint x="-150" y="-9" as="offset" />
          </mxGeometry>
        </mxCell>
        <mxCell id="1QElP343LdV9KrDLTXMQ-243" style="edgeStyle=orthogonalEdgeStyle;rounded=0;orthogonalLoop=1;jettySize=auto;html=1;exitX=1;exitY=0.25;exitDx=0;exitDy=0;exitPerimeter=0;endArrow=none;endFill=0;" parent="1" source="1QElP343LdV9KrDLTXMQ-138" edge="1">
          <mxGeometry relative="1" as="geometry">
            <mxPoint x="1199" y="195" as="targetPoint" />
            <Array as="points">
              <mxPoint x="1200" y="195" />
              <mxPoint x="1237" y="195" />
            </Array>
          </mxGeometry>
        </mxCell>
        <mxCell id="1QElP343LdV9KrDLTXMQ-252" value="new_char_s" style="edgeLabel;html=1;align=center;verticalAlign=middle;resizable=0;points=[];fontSize=9;" parent="1QElP343LdV9KrDLTXMQ-243" vertex="1" connectable="0">
          <mxGeometry x="-0.2498" y="-1" relative="1" as="geometry">
            <mxPoint x="-242" y="-8" as="offset" />
          </mxGeometry>
        </mxCell>
        <mxCell id="1QElP343LdV9KrDLTXMQ-308" value="cmd_new_char_o" style="edgeLabel;html=1;align=center;verticalAlign=middle;resizable=0;points=[];" parent="1QElP343LdV9KrDLTXMQ-243" vertex="1" connectable="0">
          <mxGeometry x="0.9781" y="2" relative="1" as="geometry">
            <mxPoint x="54" y="1" as="offset" />
          </mxGeometry>
        </mxCell>
        <mxCell id="1QElP343LdV9KrDLTXMQ-244" style="edgeStyle=orthogonalEdgeStyle;rounded=0;orthogonalLoop=1;jettySize=auto;html=1;endArrow=none;endFill=0;strokeWidth=2;entryX=0;entryY=0.33;entryDx=0;entryDy=0;entryPerimeter=0;jumpStyle=arc;" parent="1" target="1QElP343LdV9KrDLTXMQ-23" edge="1">
          <mxGeometry relative="1" as="geometry">
            <mxPoint x="630" y="256" as="targetPoint" />
            <mxPoint x="620" y="260" as="sourcePoint" />
            <Array as="points">
              <mxPoint x="620" y="256" />
              <mxPoint x="620" y="753" />
            </Array>
          </mxGeometry>
        </mxCell>
        <mxCell id="1QElP343LdV9KrDLTXMQ-251" value="led_reg_s" style="edgeLabel;html=1;align=center;verticalAlign=middle;resizable=0;points=[];fontSize=9;" parent="1QElP343LdV9KrDLTXMQ-244" vertex="1" connectable="0">
          <mxGeometry x="-0.7477" y="-1" relative="1" as="geometry">
            <mxPoint x="-112" y="-94" as="offset" />
          </mxGeometry>
        </mxCell>
        <mxCell id="1QElP343LdV9KrDLTXMQ-245" style="edgeStyle=orthogonalEdgeStyle;rounded=0;orthogonalLoop=1;jettySize=auto;html=1;exitX=1;exitY=0.88;exitDx=0;exitDy=0;exitPerimeter=0;endArrow=none;endFill=0;entryX=0;entryY=0.4;entryDx=0;entryDy=0;entryPerimeter=0;jumpStyle=arc;" parent="1" source="1QElP343LdV9KrDLTXMQ-138" target="1QElP343LdV9KrDLTXMQ-23" edge="1">
          <mxGeometry relative="1" as="geometry">
            <mxPoint x="600" y="272.42857142857144" as="targetPoint" />
            <Array as="points">
              <mxPoint x="600" y="272" />
              <mxPoint x="600" y="773" />
            </Array>
          </mxGeometry>
        </mxCell>
        <mxCell id="1QElP343LdV9KrDLTXMQ-250" value="reliable_s" style="edgeLabel;html=1;align=center;verticalAlign=middle;resizable=0;points=[];fontSize=9;" parent="1QElP343LdV9KrDLTXMQ-245" vertex="1" connectable="0">
          <mxGeometry x="0.2466" y="-1" relative="1" as="geometry">
            <mxPoint x="-93" y="-345" as="offset" />
          </mxGeometry>
        </mxCell>
        <mxCell id="1QElP343LdV9KrDLTXMQ-139" value="" style="endArrow=none;html=1;rounded=0;strokeWidth=2;entryX=0;entryY=0.1893939393939394;entryDx=0;entryDy=3;entryPerimeter=0;" parent="1" target="1QElP343LdV9KrDLTXMQ-178" edge="1">
          <mxGeometry width="50" height="50" relative="1" as="geometry">
            <mxPoint x="200" y="675" as="sourcePoint" />
            <mxPoint x="340" y="675" as="targetPoint" />
          </mxGeometry>
        </mxCell>
        <mxCell id="1QElP343LdV9KrDLTXMQ-146" value="0...7" style="edgeLabel;html=1;align=center;verticalAlign=middle;resizable=0;points=[];fontSize=7;" parent="1QElP343LdV9KrDLTXMQ-139" vertex="1" connectable="0">
          <mxGeometry x="-0.7117" y="-1" relative="1" as="geometry">
            <mxPoint x="-12" y="-7" as="offset" />
          </mxGeometry>
        </mxCell>
        <mxCell id="1QElP343LdV9KrDLTXMQ-150" value="chars_0_s" style="edgeLabel;html=1;align=center;verticalAlign=middle;resizable=0;points=[];" parent="1QElP343LdV9KrDLTXMQ-139" vertex="1" connectable="0">
          <mxGeometry x="0.7619" y="2" relative="1" as="geometry">
            <mxPoint x="-43" y="-8" as="offset" />
          </mxGeometry>
        </mxCell>
        <mxCell id="1QElP343LdV9KrDLTXMQ-140" value="" style="endArrow=none;html=1;rounded=0;strokeWidth=2;" parent="1" edge="1">
          <mxGeometry width="50" height="50" relative="1" as="geometry">
            <mxPoint x="200" y="615" as="sourcePoint" />
            <mxPoint x="240" y="675" as="targetPoint" />
            <Array as="points">
              <mxPoint x="220" y="615" />
            </Array>
          </mxGeometry>
        </mxCell>
        <mxCell id="1QElP343LdV9KrDLTXMQ-144" value="31...24" style="edgeLabel;html=1;align=center;verticalAlign=middle;resizable=0;points=[];fontSize=7;" parent="1QElP343LdV9KrDLTXMQ-140" vertex="1" connectable="0">
          <mxGeometry x="-0.8034" relative="1" as="geometry">
            <mxPoint x="2" y="-6" as="offset" />
          </mxGeometry>
        </mxCell>
        <mxCell id="1QElP343LdV9KrDLTXMQ-142" value="" style="endArrow=none;html=1;rounded=0;strokeWidth=2;" parent="1" edge="1">
          <mxGeometry width="50" height="50" relative="1" as="geometry">
            <mxPoint x="200" y="635" as="sourcePoint" />
            <mxPoint x="227" y="635" as="targetPoint" />
          </mxGeometry>
        </mxCell>
        <mxCell id="1QElP343LdV9KrDLTXMQ-145" value="16...23" style="edgeLabel;html=1;align=center;verticalAlign=middle;resizable=0;points=[];fontSize=7;" parent="1QElP343LdV9KrDLTXMQ-142" vertex="1" connectable="0">
          <mxGeometry x="-0.1785" y="-1" relative="1" as="geometry">
            <mxPoint x="-1" y="-7" as="offset" />
          </mxGeometry>
        </mxCell>
        <mxCell id="1QElP343LdV9KrDLTXMQ-143" value="" style="endArrow=none;html=1;rounded=0;strokeWidth=2;" parent="1" edge="1">
          <mxGeometry width="50" height="50" relative="1" as="geometry">
            <mxPoint x="200" y="655" as="sourcePoint" />
            <mxPoint x="233" y="655" as="targetPoint" />
          </mxGeometry>
        </mxCell>
        <mxCell id="1QElP343LdV9KrDLTXMQ-147" value="8...15" style="edgeLabel;html=1;align=center;verticalAlign=middle;resizable=0;points=[];fontSize=7;" parent="1QElP343LdV9KrDLTXMQ-143" vertex="1" connectable="0">
          <mxGeometry x="-0.3058" y="-1" relative="1" as="geometry">
            <mxPoint x="-2" y="-8" as="offset" />
          </mxGeometry>
        </mxCell>
        <mxCell id="1QElP343LdV9KrDLTXMQ-151" value="" style="endArrow=none;html=1;rounded=0;strokeWidth=2;entryX=0;entryY=0.1893939393939394;entryDx=0;entryDy=3;entryPerimeter=0;" parent="1" target="1QElP343LdV9KrDLTXMQ-181" edge="1">
          <mxGeometry width="50" height="50" relative="1" as="geometry">
            <mxPoint x="200" y="755" as="sourcePoint" />
            <mxPoint x="340" y="755" as="targetPoint" />
          </mxGeometry>
        </mxCell>
        <mxCell id="1QElP343LdV9KrDLTXMQ-152" value="0...7" style="edgeLabel;html=1;align=center;verticalAlign=middle;resizable=0;points=[];fontSize=7;" parent="1QElP343LdV9KrDLTXMQ-151" vertex="1" connectable="0">
          <mxGeometry x="-0.7117" y="-1" relative="1" as="geometry">
            <mxPoint x="-12" y="-7" as="offset" />
          </mxGeometry>
        </mxCell>
        <mxCell id="1QElP343LdV9KrDLTXMQ-153" value="chars_1_s" style="edgeLabel;html=1;align=center;verticalAlign=middle;resizable=0;points=[];" parent="1QElP343LdV9KrDLTXMQ-151" vertex="1" connectable="0">
          <mxGeometry x="0.7619" y="2" relative="1" as="geometry">
            <mxPoint x="-43" y="-8" as="offset" />
          </mxGeometry>
        </mxCell>
        <mxCell id="1QElP343LdV9KrDLTXMQ-154" value="" style="endArrow=none;html=1;rounded=0;strokeWidth=2;" parent="1" edge="1">
          <mxGeometry width="50" height="50" relative="1" as="geometry">
            <mxPoint x="200" y="695" as="sourcePoint" />
            <mxPoint x="240" y="755" as="targetPoint" />
            <Array as="points">
              <mxPoint x="220" y="695" />
            </Array>
          </mxGeometry>
        </mxCell>
        <mxCell id="1QElP343LdV9KrDLTXMQ-155" value="31...24" style="edgeLabel;html=1;align=center;verticalAlign=middle;resizable=0;points=[];fontSize=7;" parent="1QElP343LdV9KrDLTXMQ-154" vertex="1" connectable="0">
          <mxGeometry x="-0.8034" relative="1" as="geometry">
            <mxPoint x="2" y="-6" as="offset" />
          </mxGeometry>
        </mxCell>
        <mxCell id="1QElP343LdV9KrDLTXMQ-156" value="" style="endArrow=none;html=1;rounded=0;strokeWidth=2;" parent="1" edge="1">
          <mxGeometry width="50" height="50" relative="1" as="geometry">
            <mxPoint x="200" y="715" as="sourcePoint" />
            <mxPoint x="227" y="715" as="targetPoint" />
          </mxGeometry>
        </mxCell>
        <mxCell id="1QElP343LdV9KrDLTXMQ-157" value="16...23" style="edgeLabel;html=1;align=center;verticalAlign=middle;resizable=0;points=[];fontSize=7;" parent="1QElP343LdV9KrDLTXMQ-156" vertex="1" connectable="0">
          <mxGeometry x="-0.1785" y="-1" relative="1" as="geometry">
            <mxPoint x="-1" y="-7" as="offset" />
          </mxGeometry>
        </mxCell>
        <mxCell id="1QElP343LdV9KrDLTXMQ-158" value="" style="endArrow=none;html=1;rounded=0;strokeWidth=2;" parent="1" edge="1">
          <mxGeometry width="50" height="50" relative="1" as="geometry">
            <mxPoint x="200" y="735" as="sourcePoint" />
            <mxPoint x="233" y="735" as="targetPoint" />
          </mxGeometry>
        </mxCell>
        <mxCell id="1QElP343LdV9KrDLTXMQ-159" value="8...15" style="edgeLabel;html=1;align=center;verticalAlign=middle;resizable=0;points=[];fontSize=7;" parent="1QElP343LdV9KrDLTXMQ-158" vertex="1" connectable="0">
          <mxGeometry x="-0.3058" y="-1" relative="1" as="geometry">
            <mxPoint x="-2" y="-8" as="offset" />
          </mxGeometry>
        </mxCell>
        <mxCell id="1QElP343LdV9KrDLTXMQ-160" value="" style="endArrow=none;html=1;rounded=0;strokeWidth=2;entryX=0;entryY=0.1893939393939394;entryDx=0;entryDy=3;entryPerimeter=0;" parent="1" target="1QElP343LdV9KrDLTXMQ-184" edge="1">
          <mxGeometry width="50" height="50" relative="1" as="geometry">
            <mxPoint x="200" y="834.58" as="sourcePoint" />
            <mxPoint x="340" y="834.58" as="targetPoint" />
          </mxGeometry>
        </mxCell>
        <mxCell id="1QElP343LdV9KrDLTXMQ-161" value="0...7" style="edgeLabel;html=1;align=center;verticalAlign=middle;resizable=0;points=[];fontSize=7;" parent="1QElP343LdV9KrDLTXMQ-160" vertex="1" connectable="0">
          <mxGeometry x="-0.7117" y="-1" relative="1" as="geometry">
            <mxPoint x="-12" y="-7" as="offset" />
          </mxGeometry>
        </mxCell>
        <mxCell id="1QElP343LdV9KrDLTXMQ-162" value="chars_2_s" style="edgeLabel;html=1;align=center;verticalAlign=middle;resizable=0;points=[];" parent="1QElP343LdV9KrDLTXMQ-160" vertex="1" connectable="0">
          <mxGeometry x="0.7619" y="2" relative="1" as="geometry">
            <mxPoint x="-43" y="-8" as="offset" />
          </mxGeometry>
        </mxCell>
        <mxCell id="1QElP343LdV9KrDLTXMQ-163" value="" style="endArrow=none;html=1;rounded=0;strokeWidth=2;" parent="1" edge="1">
          <mxGeometry width="50" height="50" relative="1" as="geometry">
            <mxPoint x="200" y="774.58" as="sourcePoint" />
            <mxPoint x="240" y="834.58" as="targetPoint" />
            <Array as="points">
              <mxPoint x="220" y="774.58" />
            </Array>
          </mxGeometry>
        </mxCell>
        <mxCell id="1QElP343LdV9KrDLTXMQ-164" value="31...24" style="edgeLabel;html=1;align=center;verticalAlign=middle;resizable=0;points=[];fontSize=7;" parent="1QElP343LdV9KrDLTXMQ-163" vertex="1" connectable="0">
          <mxGeometry x="-0.8034" relative="1" as="geometry">
            <mxPoint x="2" y="-6" as="offset" />
          </mxGeometry>
        </mxCell>
        <mxCell id="1QElP343LdV9KrDLTXMQ-165" value="" style="endArrow=none;html=1;rounded=0;strokeWidth=2;" parent="1" edge="1">
          <mxGeometry width="50" height="50" relative="1" as="geometry">
            <mxPoint x="200" y="794.58" as="sourcePoint" />
            <mxPoint x="227" y="794.58" as="targetPoint" />
          </mxGeometry>
        </mxCell>
        <mxCell id="1QElP343LdV9KrDLTXMQ-166" value="16...23" style="edgeLabel;html=1;align=center;verticalAlign=middle;resizable=0;points=[];fontSize=7;" parent="1QElP343LdV9KrDLTXMQ-165" vertex="1" connectable="0">
          <mxGeometry x="-0.1785" y="-1" relative="1" as="geometry">
            <mxPoint x="-1" y="-7" as="offset" />
          </mxGeometry>
        </mxCell>
        <mxCell id="1QElP343LdV9KrDLTXMQ-167" value="" style="endArrow=none;html=1;rounded=0;strokeWidth=2;" parent="1" edge="1">
          <mxGeometry width="50" height="50" relative="1" as="geometry">
            <mxPoint x="200" y="814.58" as="sourcePoint" />
            <mxPoint x="233" y="814.58" as="targetPoint" />
          </mxGeometry>
        </mxCell>
        <mxCell id="1QElP343LdV9KrDLTXMQ-168" value="8...15" style="edgeLabel;html=1;align=center;verticalAlign=middle;resizable=0;points=[];fontSize=7;" parent="1QElP343LdV9KrDLTXMQ-167" vertex="1" connectable="0">
          <mxGeometry x="-0.3058" y="-1" relative="1" as="geometry">
            <mxPoint x="-2" y="-8" as="offset" />
          </mxGeometry>
        </mxCell>
        <mxCell id="1QElP343LdV9KrDLTXMQ-169" value="" style="endArrow=none;html=1;rounded=0;strokeWidth=2;entryX=0;entryY=0.1893939393939394;entryDx=0;entryDy=3;entryPerimeter=0;" parent="1" target="1QElP343LdV9KrDLTXMQ-187" edge="1">
          <mxGeometry width="50" height="50" relative="1" as="geometry">
            <mxPoint x="200" y="915" as="sourcePoint" />
            <mxPoint x="340" y="915" as="targetPoint" />
          </mxGeometry>
        </mxCell>
        <mxCell id="1QElP343LdV9KrDLTXMQ-170" value="0...7" style="edgeLabel;html=1;align=center;verticalAlign=middle;resizable=0;points=[];fontSize=7;" parent="1QElP343LdV9KrDLTXMQ-169" vertex="1" connectable="0">
          <mxGeometry x="-0.7117" y="-1" relative="1" as="geometry">
            <mxPoint x="-12" y="-7" as="offset" />
          </mxGeometry>
        </mxCell>
        <mxCell id="1QElP343LdV9KrDLTXMQ-171" value="chars_3_s" style="edgeLabel;html=1;align=center;verticalAlign=middle;resizable=0;points=[];" parent="1QElP343LdV9KrDLTXMQ-169" vertex="1" connectable="0">
          <mxGeometry x="0.7619" y="2" relative="1" as="geometry">
            <mxPoint x="-43" y="-8" as="offset" />
          </mxGeometry>
        </mxCell>
        <mxCell id="1QElP343LdV9KrDLTXMQ-172" value="" style="endArrow=none;html=1;rounded=0;strokeWidth=2;" parent="1" edge="1">
          <mxGeometry width="50" height="50" relative="1" as="geometry">
            <mxPoint x="200" y="855" as="sourcePoint" />
            <mxPoint x="240" y="915" as="targetPoint" />
            <Array as="points">
              <mxPoint x="220" y="855" />
            </Array>
          </mxGeometry>
        </mxCell>
        <mxCell id="1QElP343LdV9KrDLTXMQ-173" value="31...24" style="edgeLabel;html=1;align=center;verticalAlign=middle;resizable=0;points=[];fontSize=7;" parent="1QElP343LdV9KrDLTXMQ-172" vertex="1" connectable="0">
          <mxGeometry x="-0.8034" relative="1" as="geometry">
            <mxPoint x="2" y="-6" as="offset" />
          </mxGeometry>
        </mxCell>
        <mxCell id="1QElP343LdV9KrDLTXMQ-174" value="" style="endArrow=none;html=1;rounded=0;strokeWidth=2;" parent="1" edge="1">
          <mxGeometry width="50" height="50" relative="1" as="geometry">
            <mxPoint x="200" y="875" as="sourcePoint" />
            <mxPoint x="227" y="875" as="targetPoint" />
          </mxGeometry>
        </mxCell>
        <mxCell id="1QElP343LdV9KrDLTXMQ-175" value="16...23" style="edgeLabel;html=1;align=center;verticalAlign=middle;resizable=0;points=[];fontSize=7;" parent="1QElP343LdV9KrDLTXMQ-174" vertex="1" connectable="0">
          <mxGeometry x="-0.1785" y="-1" relative="1" as="geometry">
            <mxPoint x="-1" y="-7" as="offset" />
          </mxGeometry>
        </mxCell>
        <mxCell id="1QElP343LdV9KrDLTXMQ-176" value="" style="endArrow=none;html=1;rounded=0;strokeWidth=2;" parent="1" edge="1">
          <mxGeometry width="50" height="50" relative="1" as="geometry">
            <mxPoint x="200" y="895" as="sourcePoint" />
            <mxPoint x="233" y="895" as="targetPoint" />
          </mxGeometry>
        </mxCell>
        <mxCell id="1QElP343LdV9KrDLTXMQ-177" value="8...15" style="edgeLabel;html=1;align=center;verticalAlign=middle;resizable=0;points=[];fontSize=7;" parent="1QElP343LdV9KrDLTXMQ-176" vertex="1" connectable="0">
          <mxGeometry x="-0.3058" y="-1" relative="1" as="geometry">
            <mxPoint x="-2" y="-8" as="offset" />
          </mxGeometry>
        </mxCell>
        <mxCell id="1QElP343LdV9KrDLTXMQ-216" style="edgeStyle=orthogonalEdgeStyle;rounded=0;orthogonalLoop=1;jettySize=auto;html=1;exitX=1;exitY=0.5;exitDx=0;exitDy=-5;exitPerimeter=0;strokeWidth=2;endArrow=none;endFill=0;jumpStyle=arc;entryX=0;entryY=0.67;entryDx=0;entryDy=0;entryPerimeter=0;" parent="1" source="1QElP343LdV9KrDLTXMQ-178" target="1QElP343LdV9KrDLTXMQ-23" edge="1">
          <mxGeometry relative="1" as="geometry">
            <mxPoint x="560" y="688" as="targetPoint" />
            <Array as="points">
              <mxPoint x="500" y="688" />
              <mxPoint x="500" y="850" />
            </Array>
          </mxGeometry>
        </mxCell>
        <mxCell id="1QElP343LdV9KrDLTXMQ-221" value="to_send_chars_0_s" style="edgeLabel;html=1;align=center;verticalAlign=middle;resizable=0;points=[];fontSize=9;" parent="1QElP343LdV9KrDLTXMQ-216" vertex="1" connectable="0">
          <mxGeometry x="0.2575" y="-2" relative="1" as="geometry">
            <mxPoint y="-11" as="offset" />
          </mxGeometry>
        </mxCell>
        <mxCell id="1QElP343LdV9KrDLTXMQ-178" value="Mux" style="shadow=0;dashed=0;align=center;html=1;strokeWidth=1;shape=mxgraph.electrical.abstract.mux2;whiteSpace=wrap;" parent="1" vertex="1">
          <mxGeometry x="360" y="660" width="60" height="66" as="geometry" />
        </mxCell>
        <mxCell id="1QElP343LdV9KrDLTXMQ-179" value="" style="endArrow=none;html=1;rounded=0;strokeWidth=2;startArrow=oval;startFill=1;" parent="1" edge="1">
          <mxGeometry width="50" height="50" relative="1" as="geometry">
            <mxPoint x="270" y="700" as="sourcePoint" />
            <mxPoint x="360" y="700" as="targetPoint" />
          </mxGeometry>
        </mxCell>
        <mxCell id="1QElP343LdV9KrDLTXMQ-180" value="reg_chars_0_s" style="edgeLabel;html=1;align=center;verticalAlign=middle;resizable=0;points=[];" parent="1QElP343LdV9KrDLTXMQ-179" vertex="1" connectable="0">
          <mxGeometry x="0.3241" relative="1" as="geometry">
            <mxPoint x="-23" y="-10" as="offset" />
          </mxGeometry>
        </mxCell>
        <mxCell id="1QElP343LdV9KrDLTXMQ-193" style="edgeStyle=orthogonalEdgeStyle;rounded=0;orthogonalLoop=1;jettySize=auto;html=1;exitX=0.3333333333333333;exitY=1;exitDx=10;exitDy=0;exitPerimeter=0;endArrow=none;endFill=0;" parent="1" source="1QElP343LdV9KrDLTXMQ-181" edge="1">
          <mxGeometry relative="1" as="geometry">
            <mxPoint x="440" y="790" as="targetPoint" />
            <Array as="points">
              <mxPoint x="420" y="806" />
              <mxPoint x="420" y="806" />
            </Array>
          </mxGeometry>
        </mxCell>
        <mxCell id="1QElP343LdV9KrDLTXMQ-217" style="edgeStyle=orthogonalEdgeStyle;rounded=0;orthogonalLoop=1;jettySize=auto;html=1;exitX=1;exitY=0.5;exitDx=0;exitDy=-5;exitPerimeter=0;strokeWidth=2;endArrow=none;endFill=0;jumpStyle=arc;entryX=0;entryY=0.73;entryDx=0;entryDy=0;entryPerimeter=0;" parent="1" source="1QElP343LdV9KrDLTXMQ-181" target="1QElP343LdV9KrDLTXMQ-23" edge="1">
          <mxGeometry relative="1" as="geometry">
            <mxPoint x="560" y="768" as="targetPoint" />
            <Array as="points">
              <mxPoint x="480" y="768" />
              <mxPoint x="480" y="867" />
            </Array>
          </mxGeometry>
        </mxCell>
        <mxCell id="1QElP343LdV9KrDLTXMQ-222" value="to_send_chars_1_s" style="edgeLabel;html=1;align=center;verticalAlign=middle;resizable=0;points=[];fontSize=9;" parent="1QElP343LdV9KrDLTXMQ-217" vertex="1" connectable="0">
          <mxGeometry x="0.0856" relative="1" as="geometry">
            <mxPoint x="-10" y="-8" as="offset" />
          </mxGeometry>
        </mxCell>
        <mxCell id="1QElP343LdV9KrDLTXMQ-181" value="Mux" style="shadow=0;dashed=0;align=center;html=1;strokeWidth=1;shape=mxgraph.electrical.abstract.mux2;whiteSpace=wrap;" parent="1" vertex="1">
          <mxGeometry x="360" y="740" width="60" height="66" as="geometry" />
        </mxCell>
        <mxCell id="1QElP343LdV9KrDLTXMQ-182" value="" style="endArrow=none;html=1;rounded=0;strokeWidth=2;startArrow=oval;startFill=1;" parent="1" edge="1">
          <mxGeometry width="50" height="50" relative="1" as="geometry">
            <mxPoint x="270" y="780" as="sourcePoint" />
            <mxPoint x="360" y="780" as="targetPoint" />
          </mxGeometry>
        </mxCell>
        <mxCell id="1QElP343LdV9KrDLTXMQ-183" value="reg_chars_1_s" style="edgeLabel;html=1;align=center;verticalAlign=middle;resizable=0;points=[];" parent="1QElP343LdV9KrDLTXMQ-182" vertex="1" connectable="0">
          <mxGeometry x="0.3241" relative="1" as="geometry">
            <mxPoint x="-23" y="-10" as="offset" />
          </mxGeometry>
        </mxCell>
        <mxCell id="1QElP343LdV9KrDLTXMQ-192" style="edgeStyle=orthogonalEdgeStyle;rounded=0;orthogonalLoop=1;jettySize=auto;html=1;exitX=0.3333333333333333;exitY=1;exitDx=10;exitDy=0;exitPerimeter=0;endArrow=none;endFill=0;" parent="1" source="1QElP343LdV9KrDLTXMQ-184" edge="1">
          <mxGeometry relative="1" as="geometry">
            <mxPoint x="440" y="880" as="targetPoint" />
            <Array as="points">
              <mxPoint x="420" y="886" />
              <mxPoint x="420" y="886" />
            </Array>
          </mxGeometry>
        </mxCell>
        <mxCell id="1QElP343LdV9KrDLTXMQ-218" style="edgeStyle=orthogonalEdgeStyle;rounded=0;orthogonalLoop=1;jettySize=auto;html=1;exitX=1;exitY=0.5;exitDx=0;exitDy=-5;exitPerimeter=0;strokeWidth=2;endArrow=none;endFill=0;jumpStyle=arc;entryX=0;entryY=0.8;entryDx=0;entryDy=0;entryPerimeter=0;" parent="1" source="1QElP343LdV9KrDLTXMQ-184" target="1QElP343LdV9KrDLTXMQ-23" edge="1">
          <mxGeometry relative="1" as="geometry">
            <mxPoint x="559" y="848" as="targetPoint" />
            <Array as="points">
              <mxPoint x="460" y="848" />
              <mxPoint x="460" y="886" />
            </Array>
          </mxGeometry>
        </mxCell>
        <mxCell id="1QElP343LdV9KrDLTXMQ-223" value="to_send_chars_2_s" style="edgeLabel;html=1;align=center;verticalAlign=middle;resizable=0;points=[];fontSize=9;" parent="1QElP343LdV9KrDLTXMQ-218" vertex="1" connectable="0">
          <mxGeometry x="0.3526" relative="1" as="geometry">
            <mxPoint x="-100" y="-10" as="offset" />
          </mxGeometry>
        </mxCell>
        <mxCell id="1QElP343LdV9KrDLTXMQ-184" value="Mux" style="shadow=0;dashed=0;align=center;html=1;strokeWidth=1;shape=mxgraph.electrical.abstract.mux2;whiteSpace=wrap;" parent="1" vertex="1">
          <mxGeometry x="360" y="820" width="60" height="66" as="geometry" />
        </mxCell>
        <mxCell id="1QElP343LdV9KrDLTXMQ-185" value="" style="endArrow=none;html=1;rounded=0;strokeWidth=2;startArrow=oval;startFill=1;" parent="1" edge="1">
          <mxGeometry width="50" height="50" relative="1" as="geometry">
            <mxPoint x="270" y="860" as="sourcePoint" />
            <mxPoint x="360" y="860" as="targetPoint" />
          </mxGeometry>
        </mxCell>
        <mxCell id="1QElP343LdV9KrDLTXMQ-186" value="reg_chars_2_s" style="edgeLabel;html=1;align=center;verticalAlign=middle;resizable=0;points=[];" parent="1QElP343LdV9KrDLTXMQ-185" vertex="1" connectable="0">
          <mxGeometry x="0.3241" relative="1" as="geometry">
            <mxPoint x="-23" y="-10" as="offset" />
          </mxGeometry>
        </mxCell>
        <mxCell id="1QElP343LdV9KrDLTXMQ-191" style="edgeStyle=orthogonalEdgeStyle;rounded=0;orthogonalLoop=1;jettySize=auto;html=1;exitX=0.3333333333333333;exitY=1;exitDx=10;exitDy=0;exitPerimeter=0;endArrow=none;endFill=0;" parent="1" source="1QElP343LdV9KrDLTXMQ-187" edge="1">
          <mxGeometry relative="1" as="geometry">
            <mxPoint x="440" y="990" as="targetPoint" />
            <Array as="points">
              <mxPoint x="390" y="970" />
            </Array>
          </mxGeometry>
        </mxCell>
        <mxCell id="1QElP343LdV9KrDLTXMQ-219" style="edgeStyle=orthogonalEdgeStyle;rounded=0;orthogonalLoop=1;jettySize=auto;html=1;exitX=1;exitY=0.5;exitDx=0;exitDy=-5;exitPerimeter=0;strokeWidth=2;endArrow=none;endFill=0;jumpStyle=arc;entryX=0;entryY=0.87;entryDx=0;entryDy=0;entryPerimeter=0;" parent="1" source="1QElP343LdV9KrDLTXMQ-187" target="1QElP343LdV9KrDLTXMQ-23" edge="1">
          <mxGeometry relative="1" as="geometry">
            <mxPoint x="560" y="928" as="targetPoint" />
            <Array as="points">
              <mxPoint x="460" y="928" />
              <mxPoint x="460" y="906" />
            </Array>
          </mxGeometry>
        </mxCell>
        <mxCell id="1QElP343LdV9KrDLTXMQ-224" value="to_send_chars_3_s" style="edgeLabel;html=1;align=center;verticalAlign=middle;resizable=0;points=[];fontSize=9;" parent="1QElP343LdV9KrDLTXMQ-219" vertex="1" connectable="0">
          <mxGeometry x="0.2922" relative="1" as="geometry">
            <mxPoint x="-96" y="-9" as="offset" />
          </mxGeometry>
        </mxCell>
        <mxCell id="1QElP343LdV9KrDLTXMQ-187" value="Mux" style="shadow=0;dashed=0;align=center;html=1;strokeWidth=1;shape=mxgraph.electrical.abstract.mux2;whiteSpace=wrap;" parent="1" vertex="1">
          <mxGeometry x="360" y="900" width="60" height="66" as="geometry" />
        </mxCell>
        <mxCell id="1QElP343LdV9KrDLTXMQ-188" value="" style="endArrow=none;html=1;rounded=0;strokeWidth=2;startArrow=oval;startFill=1;" parent="1" edge="1">
          <mxGeometry width="50" height="50" relative="1" as="geometry">
            <mxPoint x="270" y="940" as="sourcePoint" />
            <mxPoint x="360" y="940" as="targetPoint" />
          </mxGeometry>
        </mxCell>
        <mxCell id="1QElP343LdV9KrDLTXMQ-189" value="reg_chars_3_s" style="edgeLabel;html=1;align=center;verticalAlign=middle;resizable=0;points=[];" parent="1QElP343LdV9KrDLTXMQ-188" vertex="1" connectable="0">
          <mxGeometry x="0.3241" relative="1" as="geometry">
            <mxPoint x="-23" y="-10" as="offset" />
          </mxGeometry>
        </mxCell>
        <mxCell id="1QElP343LdV9KrDLTXMQ-190" value="" style="endArrow=none;html=1;rounded=0;entryX=0.3333333333333333;entryY=1;entryDx=10;entryDy=0;entryPerimeter=0;jumpStyle=arc;edgeStyle=orthogonalEdgeStyle;startArrow=none;startFill=0;" parent="1" target="1QElP343LdV9KrDLTXMQ-178" edge="1">
          <mxGeometry width="50" height="50" relative="1" as="geometry">
            <mxPoint x="600" y="770" as="sourcePoint" />
            <mxPoint x="440" y="970" as="targetPoint" />
            <Array as="points">
              <mxPoint x="600" y="1050" />
              <mxPoint x="440" y="1050" />
              <mxPoint x="440" y="726" />
            </Array>
          </mxGeometry>
        </mxCell>
        <mxCell id="1QElP343LdV9KrDLTXMQ-194" value="reliable_s" style="edgeLabel;html=1;align=center;verticalAlign=middle;resizable=0;points=[];" parent="1QElP343LdV9KrDLTXMQ-190" vertex="1" connectable="0">
          <mxGeometry x="-0.7207" relative="1" as="geometry">
            <mxPoint x="-130" y="157" as="offset" />
          </mxGeometry>
        </mxCell>
        <mxCell id="1QElP343LdV9KrDLTXMQ-204" style="edgeStyle=orthogonalEdgeStyle;rounded=0;orthogonalLoop=1;jettySize=auto;html=1;exitX=1;exitY=0.16;exitDx=0;exitDy=0;exitPerimeter=0;strokeWidth=2;endArrow=oval;endFill=1;" parent="1" source="1QElP343LdV9KrDLTXMQ-195" edge="1">
          <mxGeometry relative="1" as="geometry">
            <mxPoint x="570" y="347" as="targetPoint" />
          </mxGeometry>
        </mxCell>
        <mxCell id="1QElP343LdV9KrDLTXMQ-209" value="reg_chars_0_s" style="edgeLabel;html=1;align=center;verticalAlign=middle;resizable=0;points=[];fontSize=9;" parent="1QElP343LdV9KrDLTXMQ-204" vertex="1" connectable="0">
          <mxGeometry x="-0.1227" y="1" relative="1" as="geometry">
            <mxPoint x="-4" y="-7" as="offset" />
          </mxGeometry>
        </mxCell>
        <mxCell id="1QElP343LdV9KrDLTXMQ-205" style="edgeStyle=orthogonalEdgeStyle;rounded=0;orthogonalLoop=1;jettySize=auto;html=1;exitX=1;exitY=0.33;exitDx=0;exitDy=0;exitPerimeter=0;strokeWidth=2;endArrow=oval;endFill=1;" parent="1" source="1QElP343LdV9KrDLTXMQ-195" edge="1">
          <mxGeometry relative="1" as="geometry">
            <mxPoint x="570" y="368" as="targetPoint" />
          </mxGeometry>
        </mxCell>
        <mxCell id="1QElP343LdV9KrDLTXMQ-210" value="reg_chars_1_s" style="edgeLabel;html=1;align=center;verticalAlign=middle;resizable=0;points=[];fontSize=9;" parent="1QElP343LdV9KrDLTXMQ-205" vertex="1" connectable="0">
          <mxGeometry x="0.5846" y="2" relative="1" as="geometry">
            <mxPoint x="-34" y="-8" as="offset" />
          </mxGeometry>
        </mxCell>
        <mxCell id="1QElP343LdV9KrDLTXMQ-206" style="edgeStyle=orthogonalEdgeStyle;rounded=0;orthogonalLoop=1;jettySize=auto;html=1;exitX=1;exitY=0.5;exitDx=0;exitDy=0;exitPerimeter=0;strokeWidth=2;endArrow=oval;endFill=1;" parent="1" source="1QElP343LdV9KrDLTXMQ-195" edge="1">
          <mxGeometry relative="1" as="geometry">
            <mxPoint x="570" y="388" as="targetPoint" />
          </mxGeometry>
        </mxCell>
        <mxCell id="1QElP343LdV9KrDLTXMQ-211" value="reg_chars_2_s" style="edgeLabel;html=1;align=center;verticalAlign=middle;resizable=0;points=[];fontSize=9;" parent="1QElP343LdV9KrDLTXMQ-206" vertex="1" connectable="0">
          <mxGeometry x="0.4159" y="-3" relative="1" as="geometry">
            <mxPoint x="-28" y="-11" as="offset" />
          </mxGeometry>
        </mxCell>
        <mxCell id="1QElP343LdV9KrDLTXMQ-207" style="edgeStyle=orthogonalEdgeStyle;rounded=0;orthogonalLoop=1;jettySize=auto;html=1;exitX=1;exitY=0.67;exitDx=0;exitDy=0;exitPerimeter=0;strokeWidth=2;endArrow=oval;endFill=1;" parent="1" source="1QElP343LdV9KrDLTXMQ-195" edge="1">
          <mxGeometry relative="1" as="geometry">
            <mxPoint x="570" y="409" as="targetPoint" />
          </mxGeometry>
        </mxCell>
        <mxCell id="1QElP343LdV9KrDLTXMQ-212" value="reg_chars_3_s" style="edgeLabel;html=1;align=center;verticalAlign=middle;resizable=0;points=[];fontSize=9;" parent="1QElP343LdV9KrDLTXMQ-207" vertex="1" connectable="0">
          <mxGeometry x="0.3761" y="2" relative="1" as="geometry">
            <mxPoint x="-26" y="-8" as="offset" />
          </mxGeometry>
        </mxCell>
        <mxCell id="1QElP343LdV9KrDLTXMQ-208" style="edgeStyle=orthogonalEdgeStyle;rounded=0;orthogonalLoop=1;jettySize=auto;html=1;exitX=1;exitY=0.84;exitDx=0;exitDy=0;exitPerimeter=0;strokeWidth=2;endArrow=oval;endFill=1;" parent="1" source="1QElP343LdV9KrDLTXMQ-195" edge="1">
          <mxGeometry relative="1" as="geometry">
            <mxPoint x="570" y="430" as="targetPoint" />
          </mxGeometry>
        </mxCell>
        <mxCell id="1QElP343LdV9KrDLTXMQ-213" value="reg_checksum_s" style="edgeLabel;html=1;align=center;verticalAlign=middle;resizable=0;points=[];fontSize=9;" parent="1QElP343LdV9KrDLTXMQ-208" vertex="1" connectable="0">
          <mxGeometry x="-0.1033" y="-2" relative="1" as="geometry">
            <mxPoint x="-2" y="-12" as="offset" />
          </mxGeometry>
        </mxCell>
        <mxCell id="1QElP343LdV9KrDLTXMQ-246" style="edgeStyle=orthogonalEdgeStyle;rounded=0;orthogonalLoop=1;jettySize=auto;html=1;exitX=0;exitY=0.35;exitDx=0;exitDy=0;exitPerimeter=0;endArrow=oval;endFill=1;" parent="1" source="1QElP343LdV9KrDLTXMQ-195" edge="1">
          <mxGeometry relative="1" as="geometry">
            <mxPoint x="310" y="370" as="targetPoint" />
            <Array as="points">
              <mxPoint x="310" y="370" />
            </Array>
          </mxGeometry>
        </mxCell>
        <mxCell id="1QElP343LdV9KrDLTXMQ-247" value="save_s" style="edgeLabel;html=1;align=center;verticalAlign=middle;resizable=0;points=[];fontSize=8;" parent="1QElP343LdV9KrDLTXMQ-246" vertex="1" connectable="0">
          <mxGeometry x="0.1102" y="1" relative="1" as="geometry">
            <mxPoint x="-8" y="-8" as="offset" />
          </mxGeometry>
        </mxCell>
        <mxCell id="ldgLycimxbrnljd3MN74-1" style="edgeStyle=orthogonalEdgeStyle;rounded=0;orthogonalLoop=1;jettySize=auto;html=1;exitX=0;exitY=0.47;exitDx=0;exitDy=0;exitPerimeter=0;endArrow=oval;endFill=1;" edge="1" parent="1" source="1QElP343LdV9KrDLTXMQ-195">
          <mxGeometry relative="1" as="geometry">
            <mxPoint x="310" y="385" as="targetPoint" />
          </mxGeometry>
        </mxCell>
        <mxCell id="ldgLycimxbrnljd3MN74-2" style="edgeStyle=orthogonalEdgeStyle;rounded=0;orthogonalLoop=1;jettySize=auto;html=1;exitX=0;exitY=0.59;exitDx=0;exitDy=0;exitPerimeter=0;endArrow=oval;endFill=1;" edge="1" parent="1" source="1QElP343LdV9KrDLTXMQ-195">
          <mxGeometry relative="1" as="geometry">
            <mxPoint x="310" y="400" as="targetPoint" />
          </mxGeometry>
        </mxCell>
        <mxCell id="ldgLycimxbrnljd3MN74-3" style="edgeStyle=orthogonalEdgeStyle;rounded=0;orthogonalLoop=1;jettySize=auto;html=1;exitX=0;exitY=0.72;exitDx=0;exitDy=0;exitPerimeter=0;endArrow=oval;endFill=1;" edge="1" parent="1" source="1QElP343LdV9KrDLTXMQ-195">
          <mxGeometry relative="1" as="geometry">
            <mxPoint x="310" y="416" as="targetPoint" />
          </mxGeometry>
        </mxCell>
        <mxCell id="ldgLycimxbrnljd3MN74-4" style="edgeStyle=orthogonalEdgeStyle;rounded=0;orthogonalLoop=1;jettySize=auto;html=1;exitX=0;exitY=0.84;exitDx=0;exitDy=0;exitPerimeter=0;endArrow=oval;endFill=1;" edge="1" parent="1" source="1QElP343LdV9KrDLTXMQ-195">
          <mxGeometry relative="1" as="geometry">
            <mxPoint x="310" y="430" as="targetPoint" />
          </mxGeometry>
        </mxCell>
        <mxCell id="ldgLycimxbrnljd3MN74-8" style="edgeStyle=orthogonalEdgeStyle;rounded=0;orthogonalLoop=1;jettySize=auto;html=1;exitX=0;exitY=0.93;exitDx=0;exitDy=0;exitPerimeter=0;endArrow=oval;endFill=1;" edge="1" parent="1" source="1QElP343LdV9KrDLTXMQ-195">
          <mxGeometry relative="1" as="geometry">
            <mxPoint x="310" y="441" as="targetPoint" />
          </mxGeometry>
        </mxCell>
        <mxCell id="1QElP343LdV9KrDLTXMQ-195" value="Sauvegarde des caractÃ¨res" style="rounded=0;whiteSpace=wrap;html=1;points=[[0,0,0,0,0],[0,0.11,0,0,0],[0,0.24,0,0,0],[0,0.35,0,0,0],[0,0.47,0,0,0],[0,0.59,0,0,0],[0,0.72,0,0,0],[0,0.84,0,0,0],[0,0.93,0,0,0],[0,1,0,0,0],[0.25,0,0,0,0],[0.25,1,0,0,0],[0.5,0,0,0,0],[0.5,1,0,0,0],[0.75,0,0,0,0],[0.75,1,0,0,0],[1,0,0,0,0],[1,0.16,0,0,0],[1,0.33,0,0,0],[1,0.5,0,0,0],[1,0.67,0,0,0],[1,0.84,0,0,0],[1,1,0,0,0]];fillColor=#fff2cc;strokeColor=#d6b656;fontStyle=1" parent="1" vertex="1">
          <mxGeometry x="366" y="327" width="120" height="123" as="geometry" />
        </mxCell>
        <mxCell id="1QElP343LdV9KrDLTXMQ-198" value="" style="endArrow=none;html=1;rounded=0;entryX=0;entryY=0.19;entryDx=0;entryDy=0;entryPerimeter=0;edgeStyle=orthogonalEdgeStyle;jumpStyle=arc;strokeColor=#026309;" parent="1" target="1QElP343LdV9KrDLTXMQ-114" edge="1">
          <mxGeometry width="50" height="50" relative="1" as="geometry">
            <mxPoint x="300" y="340" as="sourcePoint" />
            <mxPoint x="300" y="340" as="targetPoint" />
            <Array as="points">
              <mxPoint x="300" y="499" />
            </Array>
          </mxGeometry>
        </mxCell>
        <mxCell id="1QElP343LdV9KrDLTXMQ-199" value="" style="endArrow=none;html=1;rounded=0;entryX=0;entryY=0.41;entryDx=0;entryDy=0;entryPerimeter=0;jumpStyle=arc;edgeStyle=orthogonalEdgeStyle;strokeColor=#026309;" parent="1" target="1QElP343LdV9KrDLTXMQ-114" edge="1">
          <mxGeometry width="50" height="50" relative="1" as="geometry">
            <mxPoint x="280" y="355" as="sourcePoint" />
            <mxPoint x="290" y="360" as="targetPoint" />
            <Array as="points">
              <mxPoint x="280" y="521" />
            </Array>
          </mxGeometry>
        </mxCell>
        <mxCell id="1QElP343LdV9KrDLTXMQ-225" value="" style="endArrow=none;html=1;rounded=0;strokeWidth=2;entryX=0;entryY=0.1893939393939394;entryDx=0;entryDy=3;entryPerimeter=0;" parent="1" target="1QElP343LdV9KrDLTXMQ-229" edge="1">
          <mxGeometry width="50" height="50" relative="1" as="geometry">
            <mxPoint x="36" y="1000" as="sourcePoint" />
            <mxPoint x="201" y="1000" as="targetPoint" />
          </mxGeometry>
        </mxCell>
        <mxCell id="1QElP343LdV9KrDLTXMQ-226" value="checksum_i" style="edgeLabel;html=1;align=center;verticalAlign=middle;resizable=0;points=[];" parent="1QElP343LdV9KrDLTXMQ-225" vertex="1" connectable="0">
          <mxGeometry x="0.2447" y="-1" relative="1" as="geometry">
            <mxPoint x="-168" y="-10" as="offset" />
          </mxGeometry>
        </mxCell>
        <mxCell id="1QElP343LdV9KrDLTXMQ-227" value="" style="endArrow=none;html=1;rounded=0;" parent="1" edge="1">
          <mxGeometry width="50" height="50" relative="1" as="geometry">
            <mxPoint x="150" y="1005" as="sourcePoint" />
            <mxPoint x="160" y="995" as="targetPoint" />
          </mxGeometry>
        </mxCell>
        <mxCell id="1QElP343LdV9KrDLTXMQ-228" value="8" style="edgeLabel;html=1;align=center;verticalAlign=middle;resizable=0;points=[];labelBackgroundColor=none;" parent="1QElP343LdV9KrDLTXMQ-227" vertex="1" connectable="0">
          <mxGeometry x="0.5707" y="1" relative="1" as="geometry">
            <mxPoint x="-4" y="-3" as="offset" />
          </mxGeometry>
        </mxCell>
        <mxCell id="1QElP343LdV9KrDLTXMQ-230" style="edgeStyle=orthogonalEdgeStyle;rounded=0;orthogonalLoop=1;jettySize=auto;html=1;exitX=0.33333333333333337;exitY=1;exitDx=10;exitDy=0;exitPerimeter=0;endArrow=none;endFill=0;" parent="1" source="1QElP343LdV9KrDLTXMQ-229" edge="1">
          <mxGeometry relative="1" as="geometry">
            <mxPoint x="470" y="1050" as="targetPoint" />
            <Array as="points">
              <mxPoint x="460" y="1050" />
              <mxPoint x="460" y="1050" />
            </Array>
          </mxGeometry>
        </mxCell>
        <mxCell id="1QElP343LdV9KrDLTXMQ-233" style="edgeStyle=orthogonalEdgeStyle;rounded=0;orthogonalLoop=1;jettySize=auto;html=1;exitX=1;exitY=0.5;exitDx=0;exitDy=-5;exitPerimeter=0;strokeWidth=2;endArrow=none;endFill=0;entryX=0;entryY=0.93;entryDx=0;entryDy=0;entryPerimeter=0;" parent="1" source="1QElP343LdV9KrDLTXMQ-229" target="1QElP343LdV9KrDLTXMQ-23" edge="1">
          <mxGeometry relative="1" as="geometry">
            <mxPoint x="560" y="1012" as="targetPoint" />
            <Array as="points">
              <mxPoint x="480" y="1012" />
              <mxPoint x="480" y="923" />
            </Array>
          </mxGeometry>
        </mxCell>
        <mxCell id="1QElP343LdV9KrDLTXMQ-234" value="to_send_checksum_s" style="edgeLabel;html=1;align=center;verticalAlign=middle;resizable=0;points=[];fontSize=9;" parent="1QElP343LdV9KrDLTXMQ-233" vertex="1" connectable="0">
          <mxGeometry x="0.1972" y="1" relative="1" as="geometry">
            <mxPoint x="-31" y="-8" as="offset" />
          </mxGeometry>
        </mxCell>
        <mxCell id="1QElP343LdV9KrDLTXMQ-229" value="Mux" style="shadow=0;dashed=0;align=center;html=1;strokeWidth=1;shape=mxgraph.electrical.abstract.mux2;whiteSpace=wrap;" parent="1" vertex="1">
          <mxGeometry x="360" y="984" width="60" height="66" as="geometry" />
        </mxCell>
        <mxCell id="1QElP343LdV9KrDLTXMQ-231" value="" style="endArrow=none;html=1;rounded=0;strokeWidth=2;startArrow=oval;startFill=1;" parent="1" edge="1">
          <mxGeometry width="50" height="50" relative="1" as="geometry">
            <mxPoint x="270" y="1025" as="sourcePoint" />
            <mxPoint x="360" y="1025" as="targetPoint" />
          </mxGeometry>
        </mxCell>
        <mxCell id="1QElP343LdV9KrDLTXMQ-232" value="reg_checksum_s" style="edgeLabel;html=1;align=center;verticalAlign=middle;resizable=0;points=[];" parent="1QElP343LdV9KrDLTXMQ-231" vertex="1" connectable="0">
          <mxGeometry x="0.3241" relative="1" as="geometry">
            <mxPoint x="-23" y="-10" as="offset" />
          </mxGeometry>
        </mxCell>
        <mxCell id="1QElP343LdV9KrDLTXMQ-235" value="" style="endArrow=none;html=1;rounded=0;entryX=0;entryY=0.12;entryDx=0;entryDy=0;entryPerimeter=0;edgeStyle=orthogonalEdgeStyle;strokeColor=#026309;" parent="1" target="1QElP343LdV9KrDLTXMQ-138" edge="1">
          <mxGeometry width="50" height="50" relative="1" as="geometry">
            <mxPoint x="300" y="178" as="sourcePoint" />
            <mxPoint x="360" y="190" as="targetPoint" />
          </mxGeometry>
        </mxCell>
        <mxCell id="1QElP343LdV9KrDLTXMQ-236" value="" style="endArrow=none;html=1;rounded=0;entryX=0;entryY=0.25;entryDx=0;entryDy=0;entryPerimeter=0;edgeStyle=orthogonalEdgeStyle;jumpStyle=arc;strokeColor=#026309;" parent="1" target="1QElP343LdV9KrDLTXMQ-138" edge="1">
          <mxGeometry width="50" height="50" relative="1" as="geometry">
            <mxPoint x="280" y="200" as="sourcePoint" />
            <mxPoint x="260" y="250" as="targetPoint" />
            <Array as="points">
              <mxPoint x="280" y="200" />
              <mxPoint x="280" y="195" />
            </Array>
          </mxGeometry>
        </mxCell>
        <mxCell id="1QElP343LdV9KrDLTXMQ-257" value="" style="endArrow=none;html=1;rounded=0;edgeStyle=orthogonalEdgeStyle;entryX=0;entryY=0.13;entryDx=0;entryDy=0;entryPerimeter=0;strokeWidth=2;" parent="1" target="1QElP343LdV9KrDLTXMQ-23" edge="1">
          <mxGeometry width="50" height="50" relative="1" as="geometry">
            <mxPoint x="320" y="155" as="sourcePoint" />
            <mxPoint x="580" y="70" as="targetPoint" />
            <Array as="points">
              <mxPoint x="680" y="156" />
              <mxPoint x="680" y="697" />
            </Array>
          </mxGeometry>
        </mxCell>
        <mxCell id="1QElP343LdV9KrDLTXMQ-272" style="rounded=0;orthogonalLoop=1;jettySize=auto;html=1;exitX=0;exitY=0.85;exitDx=0;exitDy=0;exitPerimeter=0;endArrow=none;endFill=0;jumpStyle=arc;strokeColor=#026309;" parent="1" source="1QElP343LdV9KrDLTXMQ-267" edge="1">
          <mxGeometry relative="1" as="geometry">
            <mxPoint x="951" y="939" as="targetPoint" />
          </mxGeometry>
        </mxCell>
        <mxCell id="1QElP343LdV9KrDLTXMQ-276" style="edgeStyle=orthogonalEdgeStyle;rounded=0;orthogonalLoop=1;jettySize=auto;html=1;exitX=0.5;exitY=1;exitDx=0;exitDy=0;exitPerimeter=0;endArrow=none;endFill=0;strokeColor=#026309;" parent="1" source="1QElP343LdV9KrDLTXMQ-267" edge="1">
          <mxGeometry relative="1" as="geometry">
            <mxPoint x="964" y="979" as="targetPoint" />
            <Array as="points">
              <mxPoint x="1002" y="980" />
              <mxPoint x="964" y="980" />
            </Array>
          </mxGeometry>
        </mxCell>
        <mxCell id="1QElP343LdV9KrDLTXMQ-298" style="edgeStyle=orthogonalEdgeStyle;rounded=0;orthogonalLoop=1;jettySize=auto;html=1;exitX=1;exitY=0.5;exitDx=0;exitDy=0;exitPerimeter=0;endArrow=dash;endFill=0;strokeWidth=2;" parent="1" source="1QElP343LdV9KrDLTXMQ-267" edge="1">
          <mxGeometry relative="1" as="geometry">
            <mxPoint x="1200" y="922" as="targetPoint" />
          </mxGeometry>
        </mxCell>
        <mxCell id="1QElP343LdV9KrDLTXMQ-301" value="readdata_reg_s" style="edgeLabel;html=1;align=center;verticalAlign=middle;resizable=0;points=[];" parent="1QElP343LdV9KrDLTXMQ-298" vertex="1" connectable="0">
          <mxGeometry x="-0.0402" y="5" relative="1" as="geometry">
            <mxPoint x="-42" y="-5" as="offset" />
          </mxGeometry>
        </mxCell>
        <mxCell id="1QElP343LdV9KrDLTXMQ-320" value="avl_readdata_o" style="edgeLabel;html=1;align=center;verticalAlign=middle;resizable=0;points=[];" parent="1QElP343LdV9KrDLTXMQ-298" vertex="1" connectable="0">
          <mxGeometry x="0.7934" y="3" relative="1" as="geometry">
            <mxPoint x="63" y="2" as="offset" />
          </mxGeometry>
        </mxCell>
        <mxCell id="1QElP343LdV9KrDLTXMQ-323" value="32" style="edgeLabel;html=1;align=center;verticalAlign=middle;resizable=0;points=[];" parent="1QElP343LdV9KrDLTXMQ-298" vertex="1" connectable="0">
          <mxGeometry x="0.8733" y="1" relative="1" as="geometry">
            <mxPoint y="-11" as="offset" />
          </mxGeometry>
        </mxCell>
        <mxCell id="1QElP343LdV9KrDLTXMQ-267" value="REG32" style="rounded=0;whiteSpace=wrap;html=1;fillColor=#dae8fc;strokeColor=#6c8ebf;points=[[0,0,0,0,0],[0,0.5,0,0,0],[0,0.85,0,0,0],[0,1,0,0,0],[0.5,1,0,0,0],[1,0,0,0,0],[1,0.5,0,0,0],[1,0.75,0,0,0],[1,1,0,0,0]];verticalAlign=top;" parent="1" vertex="1">
          <mxGeometry x="977" y="899" width="50" height="47" as="geometry" />
        </mxCell>
        <mxCell id="1QElP343LdV9KrDLTXMQ-270" value="" style="endArrow=none;html=1;rounded=0;edgeStyle=orthogonalEdgeStyle;startArrow=oval;startFill=1;strokeColor=#026309;entryX=0;entryY=0.85;entryDx=0;entryDy=0;entryPerimeter=0;jumpStyle=arc;" parent="1" target="1QElP343LdV9KrDLTXMQ-271" edge="1">
          <mxGeometry width="50" height="50" relative="1" as="geometry">
            <mxPoint x="870" y="959" as="sourcePoint" />
            <mxPoint x="1010" y="730" as="targetPoint" />
            <Array as="points">
              <mxPoint x="950" y="959" />
              <mxPoint x="950" y="870" />
              <mxPoint x="977" y="870" />
            </Array>
          </mxGeometry>
        </mxCell>
        <mxCell id="1QElP343LdV9KrDLTXMQ-275" value="avl_clk_i" style="edgeLabel;html=1;align=center;verticalAlign=middle;resizable=0;points=[];fontColor=#026309;" parent="1QElP343LdV9KrDLTXMQ-270" vertex="1" connectable="0">
          <mxGeometry x="-0.703" relative="1" as="geometry">
            <mxPoint x="-3" y="-9" as="offset" />
          </mxGeometry>
        </mxCell>
        <mxCell id="1QElP343LdV9KrDLTXMQ-299" style="edgeStyle=orthogonalEdgeStyle;rounded=0;orthogonalLoop=1;jettySize=auto;html=1;exitX=1;exitY=0.5;exitDx=0;exitDy=0;exitPerimeter=0;endArrow=none;endFill=0;" parent="1" source="1QElP343LdV9KrDLTXMQ-271" edge="1">
          <mxGeometry relative="1" as="geometry">
            <mxPoint x="1200" y="852" as="targetPoint" />
          </mxGeometry>
        </mxCell>
        <mxCell id="1QElP343LdV9KrDLTXMQ-300" value="readdatavalid_reg_s" style="edgeLabel;html=1;align=center;verticalAlign=middle;resizable=0;points=[];" parent="1QElP343LdV9KrDLTXMQ-299" vertex="1" connectable="0">
          <mxGeometry x="-0.3559" y="-3" relative="1" as="geometry">
            <mxPoint y="-13" as="offset" />
          </mxGeometry>
        </mxCell>
        <mxCell id="1QElP343LdV9KrDLTXMQ-319" value="avl_readdatavalid_o&amp;nbsp;" style="edgeLabel;html=1;align=center;verticalAlign=middle;resizable=0;points=[];" parent="1QElP343LdV9KrDLTXMQ-299" vertex="1" connectable="0">
          <mxGeometry x="0.7397" y="1" relative="1" as="geometry">
            <mxPoint x="80" as="offset" />
          </mxGeometry>
        </mxCell>
        <mxCell id="1QElP343LdV9KrDLTXMQ-271" value="REG1" style="rounded=0;whiteSpace=wrap;html=1;fillColor=#dae8fc;strokeColor=#6c8ebf;points=[[0,0,0,0,0],[0,0.5,0,0,0],[0,0.85,0,0,0],[0,1,0,0,0],[0.5,1,0,0,0],[1,0,0,0,0],[1,0.5,0,0,0],[1,0.75,0,0,0],[1,1,0,0,0]];verticalAlign=top;" parent="1" vertex="1">
          <mxGeometry x="977" y="827" width="50" height="50" as="geometry" />
        </mxCell>
        <mxCell id="1QElP343LdV9KrDLTXMQ-273" value="" style="endArrow=none;html=1;rounded=0;edgeStyle=orthogonalEdgeStyle;startArrow=oval;startFill=1;strokeColor=#026309;entryX=0.5;entryY=1;entryDx=0;entryDy=0;entryPerimeter=0;jumpStyle=arc;" parent="1" target="1QElP343LdV9KrDLTXMQ-271" edge="1">
          <mxGeometry width="50" height="50" relative="1" as="geometry">
            <mxPoint x="870" y="980" as="sourcePoint" />
            <mxPoint x="1040" y="780" as="targetPoint" />
            <Array as="points">
              <mxPoint x="870" y="980" />
              <mxPoint x="964" y="980" />
              <mxPoint x="964" y="890" />
              <mxPoint x="1002" y="890" />
            </Array>
          </mxGeometry>
        </mxCell>
        <mxCell id="1QElP343LdV9KrDLTXMQ-274" value="avl_reset_i" style="edgeLabel;html=1;align=center;verticalAlign=middle;resizable=0;points=[];fontColor=#026309;" parent="1QElP343LdV9KrDLTXMQ-273" vertex="1" connectable="0">
          <mxGeometry x="-0.7099" y="-2" relative="1" as="geometry">
            <mxPoint x="-2" y="-11" as="offset" />
          </mxGeometry>
        </mxCell>
        <mxCell id="1QElP343LdV9KrDLTXMQ-278" style="edgeStyle=orthogonalEdgeStyle;rounded=0;orthogonalLoop=1;jettySize=auto;html=1;exitX=0.3333333333333333;exitY=1;exitDx=10;exitDy=0;exitPerimeter=0;endArrow=none;endFill=0;jumpStyle=arc;" parent="1" source="1QElP343LdV9KrDLTXMQ-277" edge="1">
          <mxGeometry relative="1" as="geometry">
            <mxPoint x="600" y="640" as="targetPoint" />
            <Array as="points">
              <mxPoint x="792" y="636" />
              <mxPoint x="600" y="636" />
            </Array>
          </mxGeometry>
        </mxCell>
        <mxCell id="1QElP343LdV9KrDLTXMQ-279" style="edgeStyle=orthogonalEdgeStyle;rounded=0;orthogonalLoop=1;jettySize=auto;html=1;exitX=0;exitY=0.5681818181818181;exitDx=0;exitDy=3;exitPerimeter=0;endArrow=ERmandOne;endFill=0;" parent="1" source="1QElP343LdV9KrDLTXMQ-277" edge="1">
          <mxGeometry relative="1" as="geometry">
            <mxPoint x="720" y="590" as="targetPoint" />
          </mxGeometry>
        </mxCell>
        <mxCell id="1QElP343LdV9KrDLTXMQ-280" value="&quot;00&quot;" style="edgeLabel;html=1;align=center;verticalAlign=middle;resizable=0;points=[];" parent="1QElP343LdV9KrDLTXMQ-279" vertex="1" connectable="0">
          <mxGeometry x="0.104" y="1" relative="1" as="geometry">
            <mxPoint x="-3" y="-9" as="offset" />
          </mxGeometry>
        </mxCell>
        <mxCell id="1QElP343LdV9KrDLTXMQ-277" value="Mux" style="shadow=0;dashed=0;align=center;html=1;strokeWidth=1;shape=mxgraph.electrical.abstract.mux2;whiteSpace=wrap;" parent="1" vertex="1">
          <mxGeometry x="762" y="550" width="60" height="66" as="geometry" />
        </mxCell>
        <mxCell id="1QElP343LdV9KrDLTXMQ-284" style="edgeStyle=orthogonalEdgeStyle;rounded=0;orthogonalLoop=1;jettySize=auto;html=1;exitX=0;exitY=0.75;exitDx=0;exitDy=0;exitPerimeter=0;endArrow=none;endFill=0;" parent="1" edge="1">
          <mxGeometry relative="1" as="geometry">
            <mxPoint x="730.3333333333333" y="636.0000339084202" as="targetPoint" />
            <mxPoint x="711" y="571.25" as="sourcePoint" />
            <Array as="points">
              <mxPoint x="700" y="571" />
              <mxPoint x="700" y="636" />
            </Array>
          </mxGeometry>
        </mxCell>
        <mxCell id="1QElP343LdV9KrDLTXMQ-283" style="edgeStyle=orthogonalEdgeStyle;rounded=0;orthogonalLoop=1;jettySize=auto;html=1;exitX=0;exitY=0.1893939393939394;exitDx=0;exitDy=3;exitPerimeter=0;entryX=1;entryY=0.5;entryDx=0;entryDy=0;entryPerimeter=0;endArrow=none;endFill=0;strokeWidth=2;" parent="1" source="1QElP343LdV9KrDLTXMQ-277" edge="1">
          <mxGeometry relative="1" as="geometry">
            <mxPoint x="725" y="565.5" as="targetPoint" />
          </mxGeometry>
        </mxCell>
        <mxCell id="1QElP343LdV9KrDLTXMQ-285" style="edgeStyle=orthogonalEdgeStyle;rounded=0;orthogonalLoop=1;jettySize=auto;html=1;exitX=1;exitY=0.5;exitDx=0;exitDy=-5;exitPerimeter=0;entryX=0;entryY=0.07;entryDx=0;entryDy=0;entryPerimeter=0;endArrow=none;endFill=0;" parent="1" source="1QElP343LdV9KrDLTXMQ-277" target="1QElP343LdV9KrDLTXMQ-23" edge="1">
          <mxGeometry relative="1" as="geometry">
            <Array as="points">
              <mxPoint x="840" y="578" />
              <mxPoint x="840" y="650" />
              <mxPoint x="700" y="650" />
              <mxPoint x="700" y="680" />
            </Array>
          </mxGeometry>
        </mxCell>
        <mxCell id="1QElP343LdV9KrDLTXMQ-286" value="status_s" style="edgeLabel;html=1;align=center;verticalAlign=middle;resizable=0;points=[];fontSize=9;" parent="1QElP343LdV9KrDLTXMQ-285" vertex="1" connectable="0">
          <mxGeometry x="-0.6156" y="1" relative="1" as="geometry">
            <mxPoint x="-23" y="29" as="offset" />
          </mxGeometry>
        </mxCell>
        <mxCell id="1QElP343LdV9KrDLTXMQ-302" value="" style="endArrow=none;html=1;rounded=0;" parent="1" edge="1">
          <mxGeometry width="50" height="50" relative="1" as="geometry">
            <mxPoint x="711" y="571" as="sourcePoint" />
            <mxPoint x="725" y="566" as="targetPoint" />
          </mxGeometry>
        </mxCell>
        <mxCell id="1QElP343LdV9KrDLTXMQ-305" value="1" style="edgeLabel;html=1;align=center;verticalAlign=middle;resizable=0;points=[];fontSize=8;" parent="1QElP343LdV9KrDLTXMQ-302" vertex="1" connectable="0">
          <mxGeometry x="-0.5899" y="2" relative="1" as="geometry">
            <mxPoint x="6" y="7" as="offset" />
          </mxGeometry>
        </mxCell>
        <mxCell id="1QElP343LdV9KrDLTXMQ-303" value="" style="endArrow=none;html=1;rounded=0;" parent="1" edge="1">
          <mxGeometry width="50" height="50" relative="1" as="geometry">
            <mxPoint x="711" y="560" as="sourcePoint" />
            <mxPoint x="725" y="565" as="targetPoint" />
          </mxGeometry>
        </mxCell>
        <mxCell id="1QElP343LdV9KrDLTXMQ-304" value="0" style="edgeLabel;html=1;align=center;verticalAlign=middle;resizable=0;points=[];fontSize=8;" parent="1QElP343LdV9KrDLTXMQ-303" vertex="1" connectable="0">
          <mxGeometry x="-0.3027" y="1" relative="1" as="geometry">
            <mxPoint x="3" y="-6" as="offset" />
          </mxGeometry>
        </mxCell>
        <mxCell id="1QElP343LdV9KrDLTXMQ-241" style="edgeStyle=orthogonalEdgeStyle;rounded=0;orthogonalLoop=1;jettySize=auto;html=1;endArrow=none;endFill=0;entryX=0;entryY=0.2;entryDx=0;entryDy=0;entryPerimeter=0;jumpStyle=arc;" parent="1" target="1QElP343LdV9KrDLTXMQ-23" edge="1">
          <mxGeometry relative="1" as="geometry">
            <mxPoint x="600" y="225.28571428571433" as="targetPoint" />
            <mxPoint x="660" y="230" as="sourcePoint" />
            <Array as="points">
              <mxPoint x="660" y="226" />
              <mxPoint x="660" y="717" />
            </Array>
          </mxGeometry>
        </mxCell>
        <mxCell id="1QElP343LdV9KrDLTXMQ-254" value="mode_gen_s" style="edgeLabel;html=1;align=center;verticalAlign=middle;resizable=0;points=[];fontSize=9;" parent="1QElP343LdV9KrDLTXMQ-241" vertex="1" connectable="0">
          <mxGeometry x="-0.4756" relative="1" as="geometry">
            <mxPoint x="-146" y="-146" as="offset" />
          </mxGeometry>
        </mxCell>
        <mxCell id="ldgLycimxbrnljd3MN74-5" value="&lt;span style=&quot;background-color: rgb(255, 255, 255);&quot;&gt;chars_0_s&lt;/span&gt;" style="text;html=1;align=center;verticalAlign=middle;resizable=0;points=[];autosize=1;strokeColor=none;fillColor=none;fontSize=8;" vertex="1" parent="1">
          <mxGeometry x="301" y="369" width="60" height="20" as="geometry" />
        </mxCell>
        <mxCell id="ldgLycimxbrnljd3MN74-6" value="&lt;span style=&quot;background-color: rgb(255, 255, 255);&quot;&gt;chars_1_s&lt;/span&gt;" style="text;html=1;align=center;verticalAlign=middle;resizable=0;points=[];autosize=1;strokeColor=none;fillColor=none;fontSize=8;" vertex="1" parent="1">
          <mxGeometry x="302" y="385" width="60" height="20" as="geometry" />
        </mxCell>
        <mxCell id="ldgLycimxbrnljd3MN74-7" value="&lt;span style=&quot;color: rgb(0, 0, 0); font-family: Helvetica; font-style: normal; font-variant-ligatures: normal; font-variant-caps: normal; font-weight: 400; letter-spacing: normal; orphans: 2; text-align: center; text-indent: 0px; text-transform: none; widows: 2; word-spacing: 0px; -webkit-text-stroke-width: 0px; white-space: nowrap; background-color: rgb(255, 255, 255); text-decoration-thickness: initial; text-decoration-style: initial; text-decoration-color: initial; float: none; display: inline !important;&quot;&gt;chars_2_s&lt;/span&gt;" style="text;whiteSpace=wrap;html=1;fontSize=8;" vertex="1" parent="1">
          <mxGeometry x="312" y="399" width="80" height="21" as="geometry" />
        </mxCell>
        <mxCell id="ldgLycimxbrnljd3MN74-9" value="&lt;span style=&quot;background-color: rgb(255, 255, 255);&quot;&gt;chars_3_s&lt;/span&gt;" style="text;html=1;align=center;verticalAlign=middle;resizable=0;points=[];autosize=1;strokeColor=none;fillColor=none;fontSize=8;" vertex="1" parent="1">
          <mxGeometry x="302" y="414" width="60" height="20" as="geometry" />
        </mxCell>
        <mxCell id="ldgLycimxbrnljd3MN74-10" value="checksum_s" style="text;html=1;align=center;verticalAlign=middle;resizable=0;points=[];autosize=1;strokeColor=none;fillColor=none;fontSize=8;" vertex="1" parent="1">
          <mxGeometry x="302" y="426" width="70" height="20" as="geometry" />
        </mxCell>
      </root>
    </mxGraphModel>
  </diagram>
</mxfile>
